<svg width="48" height="48" viewBox="0 0 48 48" fill="none" xmlns="http://www.w3.org/2000/svg">
<path d="M24.0002 2.19922C11.9597 2.19922 2.19922 11.9597 2.19922 24.0002C2.19922 36.0407 11.9597 45.8012 24.0002 45.8012C36.0407 45.8012 45.8012 36.0407 45.8012 24.0002C45.8012 11.9597 36.0407 2.19922 24.0002 2.19922ZM25.8827 35.8202V38.8907H22.9457V35.8547C18.1262 35.1947 16.0157 31.2347 16.0157 31.2347L19.0157 28.7252C19.0157 28.7252 20.9312 32.0597 24.3962 32.0597C26.3102 32.0597 27.7622 31.0352 27.7622 29.2847C27.7622 25.1927 16.7372 25.6892 16.7372 18.0977C16.7372 14.7977 19.3472 12.4202 22.9442 11.8577V8.79022H25.8812V11.8577C28.3892 12.1877 31.3592 13.5077 31.3592 16.3472V18.5252H27.4652V17.4692C27.4652 16.3802 26.0777 15.6542 24.5252 15.6542C22.5452 15.6542 21.0947 16.6442 21.0947 18.0302C21.0947 22.2212 32.1197 21.1982 32.1197 29.1527C32.1197 32.4227 29.6777 35.2577 25.8827 35.8202Z" fill="#FFFAFA"/>
</svg>
