<svg width="41" height="9" viewBox="0 0 41 9" fill="none" xmlns="http://www.w3.org/2000/svg">
<path d="M2.3405 1.565V3.49H4.9255V4.711H2.3405V6.746H5.2555V8H0.800504V0.310999H5.2555V1.565H2.3405ZM6.259 4.953C6.259 4.32233 6.38733 3.77233 6.644 3.303C6.90066 2.82633 7.25633 2.45967 7.711 2.203C8.16566 1.939 8.68633 1.807 9.273 1.807C10.0283 1.807 10.6517 1.99767 11.143 2.379C11.6417 2.753 11.9753 3.281 12.144 3.963H10.483C10.395 3.699 10.2447 3.49367 10.032 3.347C9.82666 3.193 9.57 3.116 9.262 3.116C8.822 3.116 8.47366 3.27733 8.217 3.6C7.96033 3.91533 7.832 4.36633 7.832 4.953C7.832 5.53233 7.96033 5.98333 8.217 6.306C8.47366 6.62133 8.822 6.779 9.262 6.779C9.88533 6.779 10.2923 6.50033 10.483 5.943H12.144C11.9753 6.603 11.6417 7.12733 11.143 7.516C10.6443 7.90467 10.021 8.099 9.273 8.099C8.68633 8.099 8.16566 7.97067 7.711 7.714C7.25633 7.45 6.90066 7.08333 6.644 6.614C6.38733 6.13733 6.259 5.58367 6.259 4.953ZM15.9782 8.099C15.3915 8.099 14.8635 7.97067 14.3942 7.714C13.9249 7.45 13.5545 7.07967 13.2832 6.603C13.0192 6.12633 12.8872 5.57633 12.8872 4.953C12.8872 4.32967 13.0229 3.77967 13.2942 3.303C13.5729 2.82633 13.9505 2.45967 14.4272 2.203C14.9039 1.939 15.4355 1.807 16.0222 1.807C16.6089 1.807 17.1405 1.939 17.6172 2.203C18.0939 2.45967 18.4679 2.82633 18.7392 3.303C19.0179 3.77967 19.1572 4.32967 19.1572 4.953C19.1572 5.57633 19.0142 6.12633 18.7282 6.603C18.4495 7.07967 18.0682 7.45 17.5842 7.714C17.1075 7.97067 16.5722 8.099 15.9782 8.099ZM15.9782 6.757C16.2569 6.757 16.5172 6.691 16.7592 6.559C17.0085 6.41967 17.2065 6.21433 17.3532 5.943C17.4999 5.67167 17.5732 5.34167 17.5732 4.953C17.5732 4.37367 17.4192 3.93 17.1112 3.622C16.8105 3.30667 16.4402 3.149 16.0002 3.149C15.5602 3.149 15.1899 3.30667 14.8892 3.622C14.5959 3.93 14.4492 4.37367 14.4492 4.953C14.4492 5.53233 14.5922 5.97967 14.8782 6.295C15.1715 6.603 15.5382 6.757 15.9782 6.757Z" fill="#1873FF"/>
<path d="M22.9378 8.077C22.4025 8.077 21.9185 7.98533 21.4858 7.802C21.0605 7.61867 20.7232 7.35467 20.4738 7.01C20.2245 6.66533 20.0962 6.25833 20.0888 5.789H21.7388C21.7608 6.10433 21.8708 6.35367 22.0688 6.537C22.2742 6.72033 22.5528 6.812 22.9048 6.812C23.2642 6.812 23.5465 6.72767 23.7518 6.559C23.9572 6.383 24.0598 6.15567 24.0598 5.877C24.0598 5.64967 23.9902 5.46267 23.8508 5.316C23.7115 5.16933 23.5355 5.05567 23.3228 4.975C23.1175 4.887 22.8315 4.79167 22.4648 4.689C21.9662 4.54233 21.5592 4.39933 21.2438 4.26C20.9358 4.11333 20.6682 3.897 20.4408 3.611C20.2208 3.31767 20.1108 2.929 20.1108 2.445C20.1108 1.99033 20.2245 1.59433 20.4518 1.257C20.6792 0.919666 20.9982 0.663 21.4088 0.487C21.8195 0.303667 22.2888 0.212 22.8168 0.212C23.6088 0.212 24.2505 0.406333 24.7418 0.795C25.2405 1.17633 25.5155 1.71167 25.5668 2.401H23.8728C23.8582 2.137 23.7445 1.92067 23.5318 1.752C23.3265 1.576 23.0515 1.488 22.7068 1.488C22.4062 1.488 22.1642 1.565 21.9808 1.719C21.8048 1.873 21.7168 2.09667 21.7168 2.39C21.7168 2.59533 21.7828 2.76767 21.9148 2.907C22.0542 3.039 22.2228 3.149 22.4208 3.237C22.6262 3.31767 22.9122 3.413 23.2788 3.523C23.7775 3.66967 24.1845 3.81633 24.4998 3.963C24.8152 4.10967 25.0865 4.32967 25.3138 4.623C25.5412 4.91633 25.6548 5.30133 25.6548 5.778C25.6548 6.18867 25.5485 6.57 25.3358 6.922C25.1232 7.274 24.8115 7.55633 24.4008 7.769C23.9902 7.97433 23.5025 8.077 22.9378 8.077ZM26.594 4.931C26.594 4.315 26.715 3.76867 26.957 3.292C27.2063 2.81533 27.54 2.44867 27.958 2.192C28.3833 1.93533 28.8563 1.807 29.377 1.807C29.8316 1.807 30.2276 1.89867 30.565 2.082C30.9096 2.26533 31.1846 2.49633 31.39 2.775V1.906H32.941V8H31.39V7.109C31.192 7.395 30.917 7.63333 30.565 7.824C30.2203 8.00733 29.8206 8.099 29.366 8.099C28.8526 8.099 28.3833 7.967 27.958 7.703C27.54 7.439 27.2063 7.06867 26.957 6.592C26.715 6.108 26.594 5.55433 26.594 4.931ZM31.39 4.953C31.39 4.579 31.3166 4.26 31.17 3.996C31.0233 3.72467 30.8253 3.51933 30.576 3.38C30.3266 3.23333 30.059 3.16 29.773 3.16C29.487 3.16 29.223 3.22967 28.981 3.369C28.739 3.50833 28.541 3.71367 28.387 3.985C28.2403 4.249 28.167 4.56433 28.167 4.931C28.167 5.29767 28.2403 5.62033 28.387 5.899C28.541 6.17033 28.739 6.37933 28.981 6.526C29.2303 6.67267 29.4943 6.746 29.773 6.746C30.059 6.746 30.3266 6.67633 30.576 6.537C30.8253 6.39033 31.0233 6.185 31.17 5.921C31.3166 5.64967 31.39 5.327 31.39 4.953ZM37.822 1.818C38.548 1.818 39.1347 2.049 39.582 2.511C40.0294 2.96567 40.253 3.60367 40.253 4.425V8H38.713V4.634C38.713 4.15 38.592 3.77967 38.35 3.523C38.108 3.259 37.778 3.127 37.36 3.127C36.9347 3.127 36.5974 3.259 36.348 3.523C36.106 3.77967 35.985 4.15 35.985 4.634V8H34.445V1.906H35.985V2.665C36.1904 2.401 36.4507 2.19567 36.766 2.049C37.0887 1.895 37.4407 1.818 37.822 1.818Z" fill="#FFC018"/>
</svg>
