<svg width="287" height="273" viewBox="0 0 287 273" fill="none" xmlns="http://www.w3.org/2000/svg">
<path d="M143.5 272.699C222.753 272.699 287 237.126 287 193.244C287 149.362 222.753 113.788 143.5 113.788C64.2471 113.788 0 149.362 0 193.244C0 237.126 64.2471 272.699 143.5 272.699Z" fill="#F5F5F5"/>
<path d="M24.0879 216.845C41.3995 225.597 69.458 225.597 86.7633 216.845C104.069 208.092 104.075 193.869 86.7633 185.097C69.4518 176.326 41.3995 176.345 24.0879 185.097C6.77641 193.85 6.79517 208.092 24.0879 216.845Z" fill="#E6E6E6"/>
<path d="M262.91 216.845C245.605 225.597 217.54 225.597 200.235 216.845C182.93 208.092 182.93 193.869 200.235 185.097C217.54 176.326 245.605 176.345 262.91 185.097C280.215 193.85 280.203 208.092 262.91 216.845Z" fill="#E6E6E6"/>
<path d="M179.135 190.737L143.499 170.162L107.863 190.737L143.499 211.305L179.135 190.737Z" fill="#E6E6E6"/>
<path d="M194.421 71.5818C206.174 61.0036 218.803 47.737 218.978 39.8096C213.52 39.6846 212.27 39.8096 208.7 42.5167C205.524 44.9299 192.489 61.4287 188.069 64.2858C182.217 65.755 171.689 67.468 166.618 67.5618C165.721 67.5713 164.851 67.251 164.174 66.6615C162.342 65.0861 160.917 65.1361 158.922 64.1608C157.359 63.3855 156.753 62.4978 156.422 62.7729C156.09 63.0479 155.453 64.192 156.322 65.4612C156.892 66.2047 157.564 66.8653 158.316 67.4243C156.429 67.2093 154.581 66.7316 152.827 66.0051C148.619 64.3171 146.525 64.8422 148.207 70.3814C149.257 73.845 152.252 75.9394 160.71 76.1582C163.819 76.3006 166.935 76.2191 170.032 75.9144C176.221 75.1079 183.336 74.9828 188.388 74.3451C190.632 74.0559 192.736 73.0923 194.421 71.5818Z" fill="#FFB3B2"/>
<path d="M219.567 39.4656C215.528 38.7216 210.702 39.7782 207.482 42.8979C204.262 46.0176 197.285 54.1513 197.285 54.1513C197.285 54.1513 200.642 60.447 205.694 61.6911L210.696 56.2332L219.567 39.4656Z" fill="#0061F6"/>
<path opacity="0.1" d="M219.567 39.4656C215.528 38.7216 210.702 39.7782 207.482 42.8979C204.262 46.0176 197.285 54.1513 197.285 54.1513C197.285 54.1513 200.642 60.447 205.694 61.6911L210.696 56.2332L219.567 39.4656Z" fill="black"/>
<path d="M242.062 189.149H234.891V199.59H242.062V189.149Z" fill="#FFB3B2"/>
<path d="M216.837 176.228L209.67 176.474L210.029 186.909L217.196 186.662L216.837 176.228Z" fill="#FFB3B2"/>
<path d="M241.587 87.2114C241.587 94.0885 242.474 138.352 242.474 138.352C242.643 140.328 244.488 143.979 244.087 151.525C243.543 161.803 242.656 190.362 242.656 190.362C242.656 190.362 239.292 193.694 234.528 190.362C234.528 190.362 228.039 151.562 226.751 141.372C225.632 132.481 223.725 108.33 223.725 108.33L220.074 137.32C220.074 137.32 221.243 144.004 221.506 148.724C221.768 153.444 217.292 180.121 217.292 180.121C216.131 180.848 214.8 181.259 213.431 181.311C212.062 181.364 210.703 181.057 209.489 180.421C209.489 180.421 206.739 141.197 206.02 136.914C205.301 132.632 208.07 87.2114 208.07 87.2114H241.587Z" fill="#37474F"/>
<path d="M230.795 39.7907C231.333 39.922 234.415 40.6472 237.347 41.4224C238.563 41.743 239.639 42.4574 240.405 43.4539C241.172 44.4504 241.587 45.6729 241.586 46.9304V87.2114C236.584 92.6818 219.029 95.2326 208.051 87.2114V52.257C208.051 46.674 211.177 39.9657 219.723 39.4656L230.795 39.7907Z" fill="#EBEBEB"/>
<path d="M233.207 11.207C233.785 11.1391 234.37 11.2041 234.918 11.397C235.466 11.5899 235.963 11.9055 236.371 12.3198C237.727 13.7077 237.446 16.2773 236.371 22.1853L232.176 22.6667L233.207 11.207Z" fill="#263238"/>
<path d="M208.739 9.50019C207.836 9.50401 206.942 9.32095 206.113 8.96253C204.825 8.22481 204.488 9.68775 205.194 10.9631C205.662 11.8735 206.356 12.6489 207.208 13.2158C208.061 13.7826 209.044 14.122 210.065 14.2016C210.102 14.0203 211.271 10.9256 211.271 10.9256L208.739 9.50019Z" fill="#263238"/>
<path d="M215.278 23.9235C219.805 23.9235 223.475 20.2539 223.475 15.7273C223.475 11.2006 219.805 7.53101 215.278 7.53101C210.752 7.53101 207.082 11.2006 207.082 15.7273C207.082 20.2539 210.752 23.9235 215.278 23.9235Z" fill="#263238"/>
<path d="M231.239 22.6669C231.864 23.042 232.752 21.8416 233.521 21.0414C234.29 20.2411 236.797 19.1658 238.047 21.7728C239.298 24.3799 236.941 28.0247 234.965 28.6499C231.564 29.719 231.051 27.5371 231.051 27.5371L230.795 39.8096C230.795 39.8096 228.563 45.2612 222.53 46.0615C216.497 46.8617 217.741 41.904 219.723 39.4657V35.7146C219.723 35.7146 216.641 36.1835 215.14 35.9459C212.64 35.5583 211.058 33.5889 210.301 30.8756C209.082 26.4993 208.62 23.0107 209.676 14.4581C210.814 5.08024 221.724 4.98021 227.613 8.68759C233.502 12.395 231.239 22.6669 231.239 22.6669Z" fill="#FFB3B2"/>
<path d="M230.926 24.4048C231.22 24.2923 232.745 21.7477 233.521 21.0413C234.596 20.0597 233.208 11.207 233.208 11.207C233.208 11.207 234.296 7.84976 232.17 5.62408C230.045 3.3984 225.918 3.74851 222.924 3.66098C219.798 3.54844 216.434 3.36089 212.164 1.50407C207.894 -0.352743 207.569 -0.57156 207.038 1.30401C206.506 3.17958 206.306 7.48089 208.857 10.363L210.983 11.1383C210.983 11.1383 212.127 12.1573 216.115 12.645C219.112 12.9715 222.134 12.9715 225.131 12.645C226.287 12.4887 227.519 13.2702 227.906 16.9463C228.194 19.6096 229.151 25.0738 230.926 24.4048Z" fill="#263238"/>
<path d="M233.202 11.8948L236.953 9.87548C236.833 9.62093 236.663 9.39347 236.452 9.20692C236.241 9.02038 235.995 8.87865 235.727 8.79034C235.46 8.70204 235.178 8.66901 234.897 8.69327C234.617 8.71752 234.344 8.79856 234.096 8.93144C233.595 9.2162 233.223 9.68272 233.057 10.2344C232.89 10.786 232.942 11.3806 233.202 11.8948Z" fill="#263238"/>
<path d="M219.729 35.7333C219.729 35.7333 225.318 34.6079 227.268 33.5701C228.417 32.9703 229.359 32.0377 229.969 30.8943C229.673 32.0283 229.152 33.0913 228.437 34.0202C227.006 35.8458 219.729 37.19 219.729 37.19V35.7333Z" fill="#FFC9BD"/>
<path d="M219.729 21.2726C219.737 21.4934 219.811 21.7068 219.94 21.8861C220.069 22.0654 220.248 22.2028 220.454 22.2811C220.661 22.3595 220.886 22.3752 221.101 22.3265C221.317 22.2777 221.513 22.1666 221.666 22.007C221.819 21.8474 221.921 21.6464 221.961 21.429C222 21.2115 221.974 20.9874 221.887 20.7844C221.8 20.5814 221.655 20.4086 221.47 20.2875C221.285 20.1665 221.069 20.1025 220.848 20.1035C220.545 20.1133 220.259 20.2412 220.05 20.4598C219.84 20.6783 219.725 20.9701 219.729 21.2726Z" fill="#263238"/>
<path d="M220.793 24.1985C220.793 24.24 220.809 24.2797 220.839 24.3091C220.868 24.3384 220.908 24.3548 220.949 24.3548C220.991 24.3548 221.03 24.3384 221.06 24.3091C221.089 24.2797 221.106 24.24 221.106 24.1985C221.106 24.1571 221.089 24.1173 221.06 24.088C221.03 24.0587 220.991 24.0422 220.949 24.0422C220.908 24.0422 220.868 24.0587 220.839 24.088C220.809 24.1173 220.793 24.1571 220.793 24.1985Z" fill="#FFC9BD"/>
<path d="M222.048 23.4858C222.047 23.5068 222.051 23.5278 222.058 23.5475C222.066 23.5672 222.077 23.5852 222.092 23.6004C222.106 23.6155 222.124 23.6276 222.143 23.6359C222.162 23.6441 222.183 23.6483 222.204 23.6483C222.247 23.6483 222.289 23.6312 222.319 23.6007C222.35 23.5702 222.367 23.5289 222.367 23.4858C222.372 23.4622 222.371 23.4379 222.365 23.4146C222.359 23.3912 222.348 23.3695 222.333 23.3509C222.318 23.3324 222.299 23.3174 222.277 23.3071C222.255 23.2968 222.231 23.2915 222.207 23.2915C222.183 23.2915 222.16 23.2968 222.138 23.3071C222.116 23.3174 222.097 23.3324 222.082 23.3509C222.067 23.3695 222.056 23.3912 222.05 23.4146C222.044 23.4379 222.043 23.4622 222.048 23.4858Z" fill="#FFC9BD"/>
<path d="M222.686 24.7363C222.684 24.7575 222.687 24.779 222.694 24.7991C222.701 24.8192 222.713 24.8376 222.727 24.8529C222.742 24.8683 222.76 24.8804 222.78 24.8883C222.8 24.8962 222.821 24.8998 222.842 24.8988C222.885 24.8988 222.927 24.8817 222.957 24.8512C222.988 24.8207 223.005 24.7794 223.005 24.7363C223.005 24.6932 222.988 24.6518 222.957 24.6213C222.927 24.5909 222.885 24.5737 222.842 24.5737C222.8 24.5753 222.761 24.5932 222.731 24.6235C222.702 24.6538 222.686 24.6942 222.686 24.7363Z" fill="#FFC9BD"/>
<path d="M223.73 23.6608C223.73 23.7045 223.747 23.7466 223.778 23.778C223.808 23.8095 223.849 23.828 223.893 23.8296C223.914 23.8288 223.935 23.8238 223.955 23.8149C223.974 23.806 223.992 23.7933 224.006 23.7776C224.021 23.762 224.032 23.7436 224.039 23.7235C224.047 23.7035 224.05 23.6822 224.049 23.6608C224.049 23.6188 224.033 23.5784 224.004 23.5481C223.975 23.5177 223.935 23.4999 223.893 23.4983C223.85 23.4983 223.809 23.5154 223.778 23.5459C223.748 23.5764 223.73 23.6177 223.73 23.6608Z" fill="#FFC9BD"/>
<path d="M219.023 23.3233C219.023 23.3647 219.04 23.4045 219.069 23.4338C219.099 23.4631 219.138 23.4796 219.18 23.4796C219.221 23.4796 219.261 23.4631 219.29 23.4338C219.32 23.4045 219.336 23.3647 219.336 23.3233C219.336 23.2818 219.32 23.2421 219.29 23.2128C219.261 23.1835 219.221 23.167 219.18 23.167C219.138 23.167 219.099 23.1835 219.069 23.2128C219.04 23.2421 219.023 23.2818 219.023 23.3233Z" fill="#FFC9BD"/>
<path d="M219.391 24.7361C219.389 24.7574 219.392 24.7788 219.399 24.7989C219.406 24.819 219.418 24.8374 219.433 24.8528C219.447 24.8682 219.465 24.8802 219.485 24.8881C219.505 24.8961 219.526 24.8996 219.547 24.8987C219.569 24.8987 219.589 24.8945 219.609 24.8862C219.628 24.878 219.646 24.8659 219.66 24.8507C219.675 24.8355 219.686 24.8176 219.694 24.7979C219.701 24.7782 219.705 24.7572 219.704 24.7361C219.704 24.6947 219.687 24.6549 219.658 24.6256C219.629 24.5963 219.589 24.5798 219.547 24.5798C219.506 24.5798 219.466 24.5963 219.437 24.6256C219.408 24.6549 219.391 24.6947 219.391 24.7361Z" fill="#FFC9BD"/>
<path d="M217.654 23.8172C217.654 23.8586 217.671 23.8984 217.7 23.9277C217.729 23.957 217.769 23.9735 217.811 23.9735C217.852 23.9735 217.892 23.957 217.921 23.9277C217.95 23.8984 217.967 23.8586 217.967 23.8172C217.967 23.7757 217.95 23.736 217.921 23.7067C217.892 23.6774 217.852 23.6609 217.811 23.6609C217.769 23.6609 217.729 23.6774 217.7 23.7067C217.671 23.736 217.654 23.7757 217.654 23.8172Z" fill="#FFC9BD"/>
<path d="M212.777 23.2606C212.777 23.3027 212.794 23.3431 212.823 23.3734C212.852 23.4037 212.892 23.4215 212.934 23.4232C212.955 23.4223 212.976 23.4173 212.996 23.4084C213.015 23.3995 213.032 23.3868 213.047 23.3712C213.061 23.3555 213.073 23.3371 213.08 23.317C213.088 23.297 213.091 23.2757 213.09 23.2543C213.09 23.2123 213.074 23.1719 213.045 23.1416C213.016 23.1113 212.976 23.0934 212.934 23.0918C212.912 23.0926 212.891 23.0976 212.872 23.1065C212.853 23.1155 212.835 23.1281 212.821 23.1438C212.806 23.1595 212.795 23.1779 212.787 23.1979C212.78 23.2179 212.777 23.2393 212.777 23.2606Z" fill="#FFC9BD"/>
<path d="M211.676 24.0296C211.675 24.0506 211.678 24.0716 211.686 24.0913C211.693 24.111 211.705 24.129 211.719 24.1442C211.734 24.1594 211.752 24.1714 211.771 24.1797C211.79 24.1879 211.811 24.1922 211.832 24.1921C211.874 24.1905 211.914 24.1727 211.943 24.1424C211.972 24.1121 211.989 24.0716 211.989 24.0296C211.989 23.9881 211.972 23.9484 211.943 23.9191C211.913 23.8898 211.874 23.8733 211.832 23.8733C211.791 23.8733 211.751 23.8898 211.722 23.9191C211.692 23.9484 211.676 23.9881 211.676 24.0296Z" fill="#FFC9BD"/>
<path d="M210.815 23.2045C210.814 23.2259 210.817 23.2472 210.825 23.2672C210.832 23.2873 210.843 23.3057 210.858 23.3213C210.872 23.337 210.89 23.3497 210.909 23.3586C210.929 23.3675 210.95 23.3725 210.971 23.3733C211.009 23.3658 211.044 23.3452 211.069 23.315C211.094 23.2848 211.107 23.2468 211.107 23.2077C211.107 23.1685 211.094 23.1306 211.069 23.1003C211.044 23.0701 211.009 23.0495 210.971 23.042C210.929 23.0436 210.889 23.0614 210.86 23.0918C210.831 23.1221 210.815 23.1625 210.815 23.2045Z" fill="#FFC9BD"/>
<path d="M209.771 23.5859C209.766 23.6095 209.767 23.6338 209.772 23.6571C209.778 23.6804 209.789 23.7021 209.804 23.7207C209.82 23.7393 209.839 23.7543 209.861 23.7646C209.882 23.7748 209.906 23.7802 209.93 23.7802C209.954 23.7802 209.978 23.7748 210 23.7646C210.021 23.7543 210.041 23.7393 210.056 23.7207C210.071 23.7021 210.082 23.6804 210.088 23.6571C210.094 23.6338 210.094 23.6095 210.09 23.5859C210.09 23.5438 210.073 23.5034 210.044 23.4731C210.015 23.4428 209.975 23.425 209.933 23.4233C209.89 23.4233 209.849 23.4405 209.818 23.4709C209.788 23.5014 209.771 23.5428 209.771 23.5859Z" fill="#FFC9BD"/>
<path d="M209.594 22.3605C209.593 22.3819 209.596 22.4032 209.604 22.4232C209.611 22.4433 209.623 22.4617 209.637 22.4774C209.652 22.493 209.669 22.5057 209.688 22.5146C209.708 22.5235 209.729 22.5285 209.75 22.5293C209.789 22.5218 209.823 22.5012 209.848 22.471C209.873 22.4408 209.887 22.4028 209.887 22.3637C209.887 22.3245 209.873 22.2866 209.848 22.2564C209.823 22.2261 209.789 22.2055 209.75 22.198C209.708 22.1996 209.668 22.2175 209.639 22.2478C209.61 22.2781 209.594 22.3185 209.594 22.3605Z" fill="#FFC9BD"/>
<path d="M220.918 17.0462L223.312 18.3654C223.475 18.0405 223.508 17.666 223.405 17.3177C223.301 16.9694 223.069 16.6735 222.756 16.4898C222.599 16.4029 222.427 16.3483 222.249 16.3293C222.071 16.3103 221.891 16.3273 221.719 16.3792C221.548 16.4311 221.389 16.5168 221.251 16.6314C221.113 16.746 221 16.887 220.918 17.0462Z" fill="#263238"/>
<path d="M220.235 29.0061L217.678 29.9626C217.734 30.134 217.824 30.2923 217.942 30.4283C218.061 30.5643 218.205 30.6752 218.367 30.7545C218.529 30.8337 218.706 30.8797 218.886 30.8898C219.066 30.8998 219.246 30.8737 219.416 30.8129C219.76 30.6771 220.038 30.4126 220.191 30.0753C220.344 29.7381 220.36 29.3547 220.235 29.0061Z" fill="#FFC9BD"/>
<path d="M210.438 17.9779L212.626 16.2961C212.523 16.1525 212.393 16.0308 212.242 15.9381C212.092 15.8454 211.925 15.7836 211.75 15.7563C211.576 15.7289 211.397 15.7366 211.226 15.7788C211.054 15.8211 210.893 15.897 210.751 16.0023C210.455 16.2285 210.258 16.5598 210.199 16.9276C210.141 17.2953 210.227 17.6714 210.438 17.9779Z" fill="#263238"/>
<path d="M211.113 20.9538C211.123 21.1727 211.197 21.384 211.326 21.5613C211.455 21.7386 211.633 21.8743 211.838 21.9513C212.043 22.0284 212.266 22.0436 212.48 21.9949C212.694 21.9462 212.888 21.8359 213.04 21.6776C213.191 21.5193 213.293 21.3199 213.332 21.1043C213.372 20.8887 213.347 20.6663 213.261 20.4647C213.175 20.2632 213.032 20.0912 212.849 19.9703C212.666 19.8495 212.452 19.7849 212.233 19.7847C211.93 19.7929 211.642 19.9202 211.433 20.1391C211.223 20.3581 211.108 20.6508 211.113 20.9538Z" fill="#263238"/>
<path d="M216.115 19.8909L215.746 26.6242L212.232 25.4238L216.115 19.8909Z" fill="#FFC9BD"/>
<path d="M234.891 196.051V195.026C234.203 195.326 232.609 201.409 229.764 204.003C227.501 206.066 224.419 208.448 223.631 210.749C222.843 213.05 227.926 214.463 230.039 214.088C232.496 213.65 236.754 211.925 237.823 210.337C238.892 208.749 239.386 206.373 240.255 205.197C241.124 204.022 243.124 202.697 243.593 201.353C243.856 200.609 243.55 198.971 243.187 197.601C242.849 196.351 242.493 194.938 242.062 195.057C242.062 195.213 242.062 195.838 242.062 195.838C241.536 196.42 240.099 196.989 238.473 197.051C237.423 197.064 234.878 196.839 234.891 196.051Z" fill="#263238"/>
<path d="M209.957 184.697C209.582 184.697 209.282 185.235 208.457 186.123C207.23 187.362 205.806 188.388 204.243 189.161C201.555 190.505 196.335 192.569 193.971 193.638C192.496 194.3 192.565 196.082 194.09 197.095C195.616 198.108 199.298 198.846 203.724 197.851C206.131 197.314 209.27 195.088 211.227 195.207C213.183 195.326 216.928 195.301 218.398 194.294C219.867 193.288 219.273 191.124 218.86 189.293C218.41 187.273 217.76 184.179 217.091 184.291V184.916C216.228 186.217 211.839 186.754 209.945 185.792L209.957 184.697Z" fill="#263238"/>
<path d="M223.743 108.33C220.03 107.177 216.615 105.222 213.74 102.604C213.74 102.604 215.672 106.211 221.399 109.568L221.086 129.287L223.743 108.33Z" fill="#263238"/>
<path d="M92.5829 71.5815C80.823 61.0033 68.1692 47.7368 68.0254 39.8094C73.4771 39.6843 74.7337 39.8094 78.2973 42.5164C81.4732 44.9297 94.5085 61.4284 98.9286 64.2856C104.78 65.7548 115.315 67.4678 120.379 67.5616C121.276 67.5711 122.146 67.2507 122.823 66.6613C124.655 65.0858 126.081 65.1358 128.075 64.1605C129.644 63.3853 130.244 62.4975 130.576 62.7726C131.007 63.1227 131.545 64.1918 130.676 65.4609C130.105 66.2044 129.434 66.8651 128.681 67.424C130.568 67.209 132.416 66.7313 134.171 66.0048C138.378 64.3168 140.472 64.842 138.797 70.3812C137.747 73.8447 134.746 75.9391 126.293 76.1579C123.184 76.3003 120.069 76.2189 116.972 75.9141C110.782 75.1076 103.674 74.9826 98.6222 74.3449C96.375 74.0592 94.2682 73.0952 92.5829 71.5815Z" fill="#FFC9BD"/>
<path d="M61.3048 3.75469H63.1241C67.2693 3.75469 71.2448 5.40139 74.176 8.33254C77.1071 11.2637 78.7538 15.2392 78.7538 19.3845V37.9026H59.3729C57.5741 37.901 55.7932 37.545 54.1319 36.8551C52.4706 36.1652 50.9615 35.1549 49.6907 33.8817C48.4199 32.6086 47.4123 31.0976 46.7254 29.4351C46.0385 27.7726 45.6859 25.991 45.6875 24.1922V19.372C45.6875 15.2267 47.3342 11.2512 50.2654 8.32004C53.1965 5.38889 57.172 3.74219 61.3173 3.74219L61.3048 3.75469Z" fill="#263238"/>
<path d="M30.7587 185.241L31.5089 184.466C30.9337 185.673 28.5455 190.968 28.7893 195.019C28.9831 198.239 29.5646 202.309 28.4642 204.622C27.3264 207.035 22.8375 203.885 21.5496 202.046C20.0116 199.915 18.63 196.526 18.8863 193.65C19.0676 191.631 19.7803 189.718 19.9866 188.192C20.193 186.667 19.649 184.204 20.293 182.834C20.6431 182.078 22.081 181.071 23.3689 180.29C24.5505 179.577 25.8697 178.789 26.0885 179.196L25.5133 179.783C25.4821 180.602 26.1385 182.097 27.3326 183.334C28.0954 184.141 30.171 185.854 30.7587 185.241Z" fill="#0061F6"/>
<path opacity="0.1" d="M30.7587 185.241L31.5089 184.466C30.9337 185.673 28.5455 190.968 28.7893 195.019C28.9831 198.239 29.5646 202.309 28.4642 204.622C27.3264 207.035 22.8375 203.885 21.5496 202.046C20.0116 199.915 18.63 196.526 18.8863 193.65C19.0676 191.631 19.7803 189.718 19.9866 188.192C20.193 186.667 19.649 184.204 20.293 182.834C20.6431 182.078 22.081 181.071 23.3689 180.29C24.5505 179.577 25.8697 178.789 26.0885 179.196L25.5133 179.783C25.4821 180.602 26.1385 182.097 27.3326 183.334C28.0954 184.141 30.171 185.854 30.7587 185.241Z" fill="black"/>
<path d="M29.0028 197.895C28.934 196.907 28.8465 195.926 28.7902 195.013C28.6214 192.181 29.7342 188.761 30.622 186.517C31.1284 185.266 35.8486 178.533 35.8486 178.533L29.2591 172.906L25.5079 179.783L25.3767 179.915V179.958C24.5451 181.334 24.1263 186.748 23.6324 190.08C23.3073 192.312 23.4886 195.707 25.3579 198.101C27.1584 200.358 28.8215 200.727 29.0028 197.895Z" fill="#FFC9BD"/>
<path d="M70.6829 188.186C70.5807 188.215 70.4901 188.275 70.4239 188.358C70.3577 188.441 70.3193 188.543 70.3141 188.649C70.2265 189.274 70.1265 190.412 69.939 191.462C69.6826 192.862 69.4263 194.876 69.6764 195.988C69.9264 197.101 72.546 198.683 74.309 198.914C76.0721 199.146 79.1043 200.79 80.5234 202.04C82.2615 203.566 85.9438 204.791 88.4196 204.822C91.3205 204.854 93.5962 204.197 94.2589 202.072C94.534 201.19 93.8087 200.115 90.0638 198.402C90.0638 198.402 88.1883 197.451 87.0942 196.801C81.6738 193.531 79.8107 191.65 78.1915 188.242L70.6829 188.186Z" fill="#0061F6"/>
<path opacity="0.1" d="M70.6829 188.186C70.5807 188.215 70.4901 188.275 70.4239 188.358C70.3577 188.441 70.3193 188.543 70.3141 188.649C70.2265 189.274 70.1265 190.412 69.939 191.462C69.6826 192.862 69.4263 194.876 69.6764 195.988C69.9264 197.101 72.546 198.683 74.309 198.914C76.0721 199.146 79.1043 200.79 80.5234 202.04C82.2615 203.566 85.9438 204.791 88.4196 204.822C91.3205 204.854 93.5962 204.197 94.2589 202.072C94.534 201.19 93.8087 200.115 90.0638 198.402C90.0638 198.402 88.1883 197.451 87.0942 196.801C81.6738 193.531 79.8107 191.65 78.1915 188.242L70.6829 188.186Z" fill="black"/>
<path d="M80.2611 191.024C79.349 189.597 78.8333 187.953 78.7669 186.26L78.6481 181.64H70.6582V188.18V189.18C71.1083 192.356 74.103 192.731 76.6038 194.488C77.8541 195.363 82.7181 199.102 85.9816 199.708C88.6449 200.196 89.639 199.145 89.9953 198.395C86.477 196.322 83.2105 193.849 80.2611 191.024Z" fill="#FFC9BD"/>
<path d="M44.862 140.034C41.3085 143.186 38.5276 147.114 36.7345 151.512C34.2713 157.783 27.2129 176.157 27.2129 176.157C27.2129 176.157 30.3013 181.578 34.5026 181.947C34.5026 181.947 54.4524 152.606 56.7469 145.748C59.0726 142.247 61.9797 125.004 64.0866 113.076L64.1617 113.207L67.7502 138.515C66.8218 141.484 66.1504 144.527 65.7434 147.611C65.1182 153.819 70.376 183.872 70.376 183.872C70.376 183.872 73.9459 185.748 78.8849 184.091C78.8849 184.091 79.6789 144.904 80.2416 137.421C81.1793 124.86 81.6357 89.4372 79.335 82.0037L46.4187 83.8417C43.6867 91.7316 43.4741 96.7707 43.8242 105.423C44.1493 114.364 44.862 140.034 44.862 140.034Z" fill="#37474F"/>
<path d="M64.1445 113.207L66.0201 101.522C66.0201 101.522 73.9288 99.8778 77.5174 96.5205C77.5174 96.5205 73.7662 101.203 68.1395 102.735L66.0389 111.731L67.4705 136.57L64.1445 113.207Z" fill="#263238"/>
<path d="M56.548 40.147C49.1645 40.6534 46.8451 43.6793 46.795 48.1244C46.8252 51.6746 47.4225 55.1972 48.5643 58.5588L51.9154 69.9248C51.9154 69.9248 49.1395 76.2267 46.3887 83.8791C59.3051 91.0875 75.4288 87.2989 79.3175 82.041C79.48 80.9219 78.4797 72.2005 77.867 66.4988C80.1427 60.797 80.7429 57.1772 79.7801 53.4073C77.9983 46.4051 71.0837 39.5843 68.0265 39.8281L56.548 40.147Z" fill="#0061F6"/>
<path opacity="0.1" d="M56.548 40.147C49.1645 40.6534 46.8451 43.6793 46.795 48.1244C46.8252 51.6746 47.4225 55.1972 48.5643 58.5588L51.9154 69.9248C51.9154 69.9248 49.1395 76.2267 46.3887 83.8791C59.3051 91.0875 75.4288 87.2989 79.3175 82.041C79.48 80.9219 78.4797 72.2005 77.867 66.4988C80.1427 60.797 80.7429 57.1772 79.7801 53.4073C77.9983 46.4051 71.0837 39.5843 68.0265 39.8281L56.548 40.147Z" fill="black"/>
<path d="M72.9405 86.0922L61.5558 73.8197L47.0264 51.7505C47.3063 54.0663 47.8217 56.3475 48.5643 58.5588L51.9154 69.9248C51.9154 69.9248 49.1395 76.2267 46.3887 83.879C55.4352 88.9118 66.0572 88.5617 72.9405 86.0922Z" fill="#0061F6"/>
<path opacity="0.1" d="M72.9405 86.0922L61.5558 73.8197L47.0264 51.7505C47.3063 54.0663 47.8217 56.3475 48.5643 58.5588L51.9154 69.9248C51.9154 69.9248 49.1395 76.2267 46.3887 83.879C55.4352 88.9118 66.0572 88.5617 72.9405 86.0922Z" fill="black"/>
<path d="M45.345 9.0625L47.5832 12.6511C47.3533 12.809 47.0936 12.9184 46.82 12.9725C46.5464 13.0266 46.2646 13.0243 45.9919 12.9658C45.7192 12.9073 45.4613 12.7937 45.2339 12.6321C45.0066 12.4705 44.8147 12.2642 44.6698 12.0259C44.3857 11.5384 44.2975 10.9612 44.4228 10.411C44.5482 9.86086 44.8778 9.37886 45.345 9.0625Z" fill="#263238"/>
<path d="M42.9004 13.1577L47.0892 12.5325C47.1466 12.8093 47.1464 13.0951 47.0884 13.3719C47.0305 13.6486 46.9161 13.9105 46.7524 14.141C46.5887 14.3716 46.3792 14.566 46.1371 14.7119C45.8949 14.8579 45.6252 14.9524 45.3449 14.9895C44.7804 15.0552 44.2122 14.9018 43.7574 14.561C43.3026 14.2202 42.9958 13.7179 42.9004 13.1577Z" fill="#263238"/>
<path d="M73.3158 10.438C75.0601 11.4696 77.217 15.8646 77.0044 25.0674C76.8231 32.8698 74.2973 34.7954 73.0282 35.3518C71.7591 35.9083 69.3083 35.5707 66.9263 35.1705V39.8532C66.9263 39.8532 70.2211 43.6794 70.0085 45.8238C69.796 47.9682 65.2571 48.4808 62.1812 46.3802C60.1836 44.946 58.4705 43.1524 57.1296 41.0911V29.7751C57.1296 29.7751 55.5229 31.9195 52.8908 30.1753C50.2588 28.431 50.165 24.1047 51.6905 22.5542C53.2159 21.0037 56.5107 21.4914 57.1296 23.6358C57.1296 23.6358 60.9245 23.7733 65.9823 20.9975C67.9489 19.938 69.6379 18.4296 70.9121 16.5949C72.1863 14.7601 73.0098 12.6507 73.3158 10.438Z" fill="#FFC9BD"/>
<path d="M67.4201 23.1043C67.4223 23.2968 67.3678 23.4856 67.2635 23.6474C67.1592 23.8092 67.0097 23.9367 66.8335 24.0142C66.6573 24.0916 66.4622 24.1155 66.2725 24.0829C66.0828 24.0504 65.9068 23.9627 65.7665 23.8309C65.6262 23.6992 65.5278 23.529 65.4835 23.3417C65.4391 23.1544 65.4508 22.9582 65.5171 22.7775C65.5833 22.5968 65.7013 22.4396 65.8562 22.3254C66.0112 22.2112 66.1963 22.1451 66.3885 22.1353C66.5199 22.1311 66.6508 22.1529 66.7738 22.1993C66.8967 22.2458 67.0093 22.316 67.1051 22.406C67.2009 22.496 67.278 22.604 67.3321 22.7238C67.3861 22.8436 67.416 22.9729 67.4201 23.1043Z" fill="#263238"/>
<path d="M68.557 29.7188L70.8327 30.4502C70.7912 30.6023 70.7194 30.7445 70.6217 30.8683C70.5241 30.9921 70.4025 31.095 70.2642 31.1708C70.126 31.2466 69.9739 31.2939 69.817 31.3097C69.6601 31.3255 69.5016 31.3097 69.351 31.263C69.0445 31.1585 68.7904 30.9392 68.6423 30.6512C68.4942 30.3631 68.4636 30.0289 68.557 29.7188Z" fill="#FF927A"/>
<path d="M75.4666 20.0972L73.4785 18.7155C73.5627 18.5826 73.6728 18.4681 73.8022 18.3787C73.9317 18.2894 74.0778 18.2271 74.2319 18.1956C74.386 18.1641 74.5449 18.164 74.6991 18.1953C74.8532 18.2266 74.9994 18.2887 75.129 18.3779C75.3993 18.5631 75.5862 18.847 75.6493 19.1685C75.7124 19.4901 75.6468 19.8235 75.4666 20.0972Z" fill="#263238"/>
<path d="M75.0099 22.4105C75.0121 22.6029 74.9577 22.7918 74.8534 22.9536C74.7491 23.1153 74.5995 23.2429 74.4233 23.3203C74.2471 23.3977 74.052 23.4217 73.8623 23.3891C73.6726 23.3565 73.4967 23.2689 73.3564 23.1371C73.2161 23.0053 73.1176 22.8352 73.0733 22.6479C73.0289 22.4606 73.0406 22.2644 73.1069 22.0837C73.1732 21.903 73.2911 21.7458 73.4461 21.6316C73.601 21.5174 73.7861 21.4512 73.9783 21.4414C74.1097 21.4373 74.2406 21.459 74.3636 21.5055C74.4866 21.5519 74.5992 21.6222 74.695 21.7122C74.7908 21.8022 74.8679 21.9101 74.9219 22.03C74.976 22.1498 75.0059 22.2791 75.0099 22.4105Z" fill="#263238"/>
<path d="M70.2148 21.8352L70.3711 27.7433L73.4783 26.7805L70.2148 21.8352Z" fill="#FF927A"/>
<path d="M66.9264 35.1705C64.4256 34.8454 59.2553 33.3637 58.4551 31.3193C58.7746 32.3536 59.4056 33.2641 60.2619 33.9264C61.8061 35.2455 66.9264 36.7335 66.9264 36.7335V35.1705Z" fill="#FF927A"/>
<path d="M143.499 143.96L95.4093 116.164V73.6697L94.3965 73.0883V58.9089L143.499 87.2613V143.96Z" fill="#FFCF50"/>
<path opacity="0.1" d="M143.499 143.96L95.4093 116.164V73.6697L94.3965 73.0883V58.9089L143.499 87.2613V143.96Z" fill="black"/>
<path opacity="0.15" d="M143.5 101.434L126.282 91.4939L126.276 77.2958L125.094 76.6331L125.088 90.8061L95.4102 73.6697V75.7078L125.088 92.838L125.082 133.325L126.288 134.019L126.282 93.5257L143.5 103.466V101.434Z" fill="black"/>
<path d="M143.498 143.96L191.325 116.364V73.8197L192.601 73.0883V58.9089L143.498 87.2613V143.96Z" fill="#FFCF50"/>
<path opacity="0.1" d="M191.325 73.8198L161.91 90.8063L161.904 76.6332L160.722 77.2959V91.494L143.498 101.434V103.466L160.716 93.5321L160.71 134.019L161.916 133.325L161.91 92.8506L191.325 75.883V73.8198Z" fill="black"/>
<path d="M192.601 58.9091L143.499 30.563L94.3965 58.9091L143.499 87.2615L192.601 58.9091Z" fill="#FFCF50"/>
<path opacity="0.4" d="M192.601 58.9091L143.499 30.563L94.3965 58.9091L143.499 87.2615L192.601 58.9091Z" fill="white"/>
<path opacity="0.15" d="M135.233 59.4717L111.764 48.906L112.808 48.2808L136.477 58.9153" fill="black"/>
<path opacity="0.15" d="M151.758 59.4717L175.228 48.906L174.178 48.2808L150.508 58.9153" fill="black"/>
<path opacity="0.15" d="M161.904 76.6331L144.48 63.6979V63.6917L143.498 62.9602L143.492 62.9665V62.9602L142.504 63.6917L142.51 63.6979L125.08 76.6331L126.268 77.2958L143.492 64.4294L160.722 77.2958L161.904 76.6331Z" fill="black"/>
<path d="M174.189 69.5435V127.649L161.917 134.738L161.904 76.6331L174.189 69.5435Z" fill="#37474F"/>
<path d="M161.918 134.738L160.711 134.019L161.918 133.325V134.738Z" fill="#263238"/>
<path d="M112.809 69.5435V127.649L125.081 134.738L125.094 76.6331L112.809 69.5435Z" fill="#263238"/>
<path d="M125.08 134.738L126.287 134.019L125.08 133.325V134.738Z" fill="black"/>
<path d="M125.094 76.6332L143.505 62.9665L150.526 58.9091L174.19 48.2808L161.917 41.1912L143.505 54.8578L136.491 58.9153L112.809 69.5436L125.094 76.6332Z" fill="#455A64"/>
<path d="M136.491 58.9153L135.24 59.4717L139.373 61.3035L142.517 63.6917L143.505 62.9603L140.436 60.6846L136.491 58.9153Z" fill="#263238"/>
<path d="M161.905 76.6332L140.436 60.6846L112.809 48.2808L125.087 41.1912L146.575 57.1398L174.19 69.5436L161.905 76.6332Z" fill="#455A64"/>
<path d="M139.648 56.5833C139.648 56.5833 125.225 68.5556 101.674 65.8298C101.674 65.8298 111.677 72.3756 123.906 70.8939C123.906 70.8939 122.149 75.3577 111.846 80.7906C111.846 80.7906 137.585 81.0282 144.237 59.6592L139.648 56.5833Z" fill="#37474F"/>
<path d="M126.088 78.0523C133.215 75.3765 140.992 70.0999 144.218 59.678L139.63 56.6021C136.841 58.7158 133.792 60.4619 130.558 61.7974C130.558 61.7974 135.56 63.9855 140.661 62.6351C139.505 66.113 137.601 69.2955 135.083 71.959C132.566 74.6225 129.495 76.7023 126.088 78.0523Z" fill="#263238"/>
<path d="M107.668 40.9223C107.668 40.9223 110.532 37.5713 119.316 39.0842C124.617 40.0033 133.62 46.1801 138.072 56.4708C138.634 57.7712 139.897 58.2088 140.572 59.0841C140.729 59.2801 140.9 59.464 141.085 59.6343L143.867 59.6655C143.867 50.0501 138.472 40.3471 133.37 34.7329C128.269 29.1187 119.866 26.3741 113.877 26.1615C111.753 26.0634 109.636 26.4705 107.7 27.3494C106.068 31.8945 105.393 36.4022 107.668 40.9223Z" fill="#37474F"/>
<path d="M137.459 55.1766C137.459 55.1766 142.461 53.4886 140.404 45.4736C142.562 49.9027 143.737 54.7461 143.848 59.6717L141.066 59.6405C140.882 59.4702 140.711 59.2863 140.554 59.0903C139.878 58.215 138.616 57.7774 138.053 56.477C137.872 56.0269 137.665 55.6017 137.459 55.1766Z" fill="#263238"/>
<path d="M112.796 47.0803C110.689 45.3925 108.945 43.2956 107.67 40.916C105.388 36.3958 106.063 31.8882 107.67 27.3306C102.518 29.6063 99.4421 36.3021 98.2918 41.71C97.6666 44.7359 97.5916 47.3367 98.1042 48.587C99.5484 51.9881 108.007 65.7298 144.237 59.6779L144.2 55.8705C135.128 55.3078 119.286 52.5445 112.796 47.0803Z" fill="#37474F"/>
<path d="M107.668 40.9223C107.668 40.9223 107.237 30.3316 113.877 26.1615C111.753 26.0634 109.636 26.4705 107.7 27.3494C106.068 31.8945 105.393 36.4022 107.668 40.9223Z" fill="#263238"/>
<path d="M147.351 56.5833C147.351 56.5833 161.774 68.5556 185.325 65.8298C185.325 65.8298 175.322 72.3756 163.093 70.8939C163.093 70.8939 164.85 75.3577 175.153 80.7906C175.153 80.7906 149.414 81.0282 142.762 59.6592L147.351 56.5833Z" fill="#37474F"/>
<path d="M146.338 62.6228C151.415 63.9732 156.441 61.785 156.441 61.785L155.497 61.3599L155.353 61.2974L154.516 60.9035L154.328 60.816L153.565 60.4346C153.501 60.405 153.438 60.3716 153.378 60.3346C153.134 60.2158 152.903 60.0908 152.671 59.972L152.484 59.8719L151.859 59.5156L151.677 59.4156L151.09 59.078L150.927 58.9842L150.377 58.6716L150.227 58.5841L149.752 58.284L149.614 58.1964L149.195 57.9214L149.07 57.8401L148.708 57.5963L148.601 57.5212L148.295 57.3087L148.201 57.2399L147.957 57.0648L147.876 57.0023L147.695 56.8648L147.614 56.8023L147.501 56.721L147.426 56.6647L147.389 56.6272L147.345 56.5959L145.844 57.6025L142.756 59.6719C149.402 81.0409 175.141 80.8033 175.147 80.8033C161.905 80.1781 147.995 70.1313 146.338 62.6228Z" fill="#263238"/>
<path d="M179.329 40.9223C179.329 40.9223 176.466 37.5713 167.682 39.0842C162.38 40.0033 153.378 46.1801 148.926 56.4708C148.364 57.7712 147.101 58.2088 146.426 59.0841C146.269 59.2801 146.097 59.464 145.913 59.6343L143.131 59.6655C143.131 50.0501 148.526 40.3471 153.628 34.7329C158.729 29.1187 167.132 26.3741 173.121 26.1615C175.245 26.0634 177.362 26.4705 179.298 27.3494C180.93 31.8945 181.636 36.4022 179.329 40.9223Z" fill="#37474F"/>
<path d="M149.538 55.1766C149.538 55.1766 144.536 53.4886 146.593 45.4736C144.435 49.9027 143.26 54.7461 143.148 59.6717L145.931 59.6405C146.115 59.4702 146.286 59.2863 146.443 59.0903C147.118 58.215 148.381 57.7774 148.944 56.477C149.125 56.0269 149.332 55.6017 149.538 55.1766Z" fill="#263238"/>
<path d="M174.203 47.0803C176.31 45.3925 178.054 43.2956 179.329 40.916C181.611 36.3958 180.936 31.8882 179.329 27.3306C184.481 29.6063 187.557 36.3021 188.707 41.71C189.332 44.7359 189.407 47.3367 188.895 48.587C187.45 51.9881 178.992 65.7298 142.762 59.6779L142.799 55.8705C151.871 55.3078 167.713 52.5445 174.203 47.0803Z" fill="#37474F"/>
<path d="M179.329 40.9223C179.329 40.9223 179.761 30.3316 173.121 26.1615C175.245 26.0634 177.362 26.4705 179.298 27.3494C180.93 31.8945 181.636 36.4022 179.329 40.9223Z" fill="#263238"/>
<path d="M148.501 57.1523C148.461 56.7845 148.325 56.4337 148.105 56.136C147.885 55.8384 147.591 55.6044 147.251 55.4581C146.047 55.0356 144.773 54.853 143.5 54.9204C142.19 54.8529 140.881 55.0661 139.661 55.5456C139.348 55.696 139.08 55.9247 138.881 56.2095C138.683 56.4944 138.562 56.8256 138.529 57.1711C138.398 58.3089 138.317 60.2345 139.067 61.3286C140.303 62.3873 141.885 62.9547 143.512 62.9228C145.132 62.958 146.708 62.3898 147.932 61.3286C148.676 60.2158 148.601 58.2902 148.501 57.1523Z" fill="#455A64"/>
<path d="M60.1923 78.0149C47.2821 58.5402 41.0427 42.5291 51.5021 41.1287C54.6968 41.8726 56.9475 45.555 59.7359 53.7638C59.7359 53.7638 65.4564 66.155 68.0259 71.4567C72.8399 75.3141 82.1114 83.9605 86.7816 85.9173C87.6131 86.2549 88.8322 85.5297 89.6762 85.2296C91.9519 84.4356 93.2648 84.992 95.4843 84.7982C97.2223 84.6482 98.1101 84.0417 98.3226 84.4169C98.5808 84.8467 98.66 85.3606 98.5431 85.8482C98.4262 86.3358 98.1225 86.758 97.6974 87.0239C97.0284 87.5349 96.2332 87.8546 95.3967 87.9492C95.3967 87.9492 96.4471 88.7432 100.486 88.7307C105.018 88.7307 106.781 89.9373 103.205 94.4887C100.961 97.3333 97.4098 98.1961 89.4512 95.3327C86.505 94.3354 83.6342 93.1277 80.8611 91.7191C75.3906 88.7182 77.3287 89.9748 73.0274 87.249C69.5451 85.0421 61.4489 79.928 60.1923 78.0149Z" fill="#FFC9BD"/>
<path d="M226.806 78.015C242.161 57.1086 247.837 42.823 237.372 41.4226C234.183 42.1666 231.926 45.8552 229.138 54.064C229.138 54.064 221.542 66.1614 218.979 71.463C214.158 75.3204 204.887 83.9668 200.223 85.9237C199.398 86.2613 198.172 85.5361 197.328 85.236C195.052 84.442 193.74 84.9984 191.52 84.8046C189.782 84.6545 188.894 84.0481 188.682 84.4232C188.424 84.853 188.344 85.367 188.461 85.8546C188.578 86.3421 188.882 86.7643 189.307 87.0303C189.976 87.5412 190.771 87.861 191.608 87.9555C191.608 87.9555 190.557 88.7495 186.519 88.737C181.992 88.737 180.229 89.9436 183.799 94.495C186.043 97.3397 189.595 98.2024 197.553 95.339C200.499 94.3417 203.37 93.1341 206.143 91.7254C211.62 88.7245 209.676 89.9812 213.977 87.2553C217.459 85.0422 225.462 79.8468 226.806 78.015Z" fill="#FFB3B2"/>
<path d="M236.028 41.0725C236.028 41.0725 239.735 41.0725 241.605 42.8981C243.474 44.7236 244.174 48.0809 242.286 53.2387C240.398 58.3965 235.24 66.8366 235.24 66.8366C235.24 66.8366 229.163 67.168 223.762 61.6913L229.151 51.6507C229.151 51.6507 231.233 44.0922 236.028 41.0725Z" fill="#0061F6"/>
<path opacity="0.1" d="M236.028 41.0725C236.028 41.0725 239.735 41.0725 241.605 42.8981C243.474 44.7236 244.174 48.0809 242.286 53.2387C240.398 58.3965 235.24 66.8366 235.24 66.8366C235.24 66.8366 229.163 67.168 223.762 61.6913L229.151 51.6507C229.151 51.6507 231.233 44.0922 236.028 41.0725Z" fill="black"/>
</svg>
