<svg width="288" height="239" viewBox="0 0 288 239" fill="none" xmlns="http://www.w3.org/2000/svg">
<path d="M42.5283 216.196C98.5825 245.476 189.423 245.476 245.464 216.196C301.505 186.916 301.518 139.461 245.464 110.181C189.41 80.9007 98.5693 80.9072 42.5283 110.181C-13.5127 139.454 -13.5061 186.922 42.5283 216.196Z" fill="#F5F5F5"/>
<path d="M25.9039 169.519H28.2648C29.3469 165.906 30.0562 162.191 30.3817 158.433C30.8961 151.476 27.5262 140.826 21.3537 137.258C15.1811 133.69 11.8376 138.102 13.9083 141.874C15.979 145.647 22.9627 156.376 23.0551 165.608L25.9039 169.519Z" fill="#0061F6"/>
<path d="M25.3358 169.519H25.9952C26.6395 164.963 26.6395 160.339 25.9952 155.782C24.9269 146.754 21.9593 142.56 19.2028 139.645C19.1424 139.582 19.0592 139.544 18.9714 139.542C18.8836 139.539 18.7984 139.572 18.7346 139.632C18.6707 139.693 18.6335 139.776 18.631 139.864C18.6285 139.951 18.661 140.037 18.7214 140.1C21.4054 142.93 24.2938 147.018 25.316 155.855C25.9693 160.386 25.9759 164.986 25.3358 169.519Z" fill="white"/>
<path d="M26.0949 169.519C24.8815 163.795 19.3684 156.989 14.1653 155.815C8.13122 154.497 5.19662 157.682 6.06051 160.432C6.9244 163.182 11.6923 164.461 16.3217 166.617C17.8806 167.339 19.3055 168.32 20.5357 169.519H26.0949Z" fill="#0061F6"/>
<path d="M23.8991 169.519H24.6047C22.0526 163.103 16.2494 158.526 11.5012 158.104C11.4582 158.099 11.4148 158.103 11.3734 158.116C11.3321 158.129 11.2937 158.149 11.2605 158.177C11.2272 158.205 11.1999 158.239 11.1801 158.277C11.1603 158.315 11.1484 158.358 11.1451 158.401C11.1396 158.444 11.1431 158.488 11.1553 158.529C11.1674 158.571 11.1881 158.61 11.2159 158.643C11.2438 158.677 11.2782 158.704 11.3171 158.724C11.356 158.743 11.3984 158.754 11.4419 158.757C15.9262 159.159 21.4063 163.459 23.8991 169.519Z" fill="white"/>
<path d="M238.975 109.185L243.915 111.777L244.33 108.684C241.883 101.786 243.895 93.9646 246.539 90.7069C249.184 87.4491 248.676 85.0553 247.72 83.9869C246.763 82.9186 243.136 82.1075 239.549 86.3016C235.961 90.4958 235.137 95.5869 235.737 100.724C236.12 103.936 237.808 107.233 238.975 109.185Z" fill="#0061F6"/>
<path opacity="0.2" d="M238.975 109.185L243.915 111.777L244.33 108.684C241.883 101.786 243.895 93.9646 246.539 90.7069C249.184 87.4491 248.676 85.0553 247.72 83.9869C246.763 82.9186 243.136 82.1075 239.549 86.3016C235.961 90.4958 235.137 95.5869 235.737 100.724C236.12 103.936 237.808 107.233 238.975 109.185Z" fill="black"/>
<path d="M241.013 110.253L241.989 110.768C241.979 110.749 241.968 110.731 241.956 110.715C240.558 109.053 238.751 100.915 239.509 96.1473C240.446 90.2583 243.466 86.4137 246.051 84.7848C246.083 84.7653 246.11 84.7397 246.132 84.7094C246.153 84.6791 246.168 84.6448 246.176 84.6085C246.184 84.5722 246.185 84.5346 246.178 84.4981C246.171 84.4615 246.157 84.4267 246.137 84.3957C246.095 84.3327 246.03 84.2885 245.956 84.2725C245.882 84.2564 245.805 84.2699 245.741 84.31C243.103 86.0048 239.911 89.9814 238.942 96.0616C238.243 100.5 239.641 107.53 241.013 110.253Z" fill="white"/>
<path d="M244.014 97.4136C245.458 100.955 245.451 102.689 243.097 103.052C240.974 103.369 238.395 105.947 240.789 110.135L254.796 117.481C254.831 116.698 255.025 115.93 255.365 115.224C255.705 114.518 256.184 113.888 256.774 113.373C259.076 111.071 261.199 109.337 260.869 106.778C260.54 104.219 258.317 101.753 257.948 99.5239C257.579 97.2949 258.713 96.0221 261.133 93.5228C263.553 91.0234 265.749 87.1458 262.518 85.3784C259.287 83.6111 255.587 86.638 254.044 88.6757C252.501 90.7135 251.09 91.6103 248.05 91.4389C245.009 91.2674 242.569 93.8723 244.014 97.4136Z" fill="#0061F6"/>
<path d="M247.977 113.907C247.911 103.039 255.7 90.3112 260.032 87.7393C260.096 87.6984 260.142 87.6347 260.16 87.5611C260.179 87.4875 260.168 87.4097 260.131 87.3436C260.092 87.2801 260.029 87.2344 259.957 87.216C259.884 87.1975 259.807 87.2078 259.742 87.2447C255.35 89.8825 247.496 102.617 247.41 113.623L247.977 113.907Z" fill="white"/>
<path d="M250.06 102.61C250.001 102.624 249.938 102.617 249.883 102.59C249.828 102.564 249.784 102.52 249.757 102.465C248.499 100.118 247.44 97.6693 246.591 95.145C246.58 95.1095 246.576 95.0721 246.579 95.035C246.582 94.9979 246.593 94.9618 246.61 94.9287C246.627 94.8957 246.651 94.8663 246.679 94.8423C246.708 94.8183 246.741 94.8002 246.776 94.7889C246.812 94.7776 246.849 94.7735 246.886 94.7767C246.923 94.7799 246.959 94.7903 246.992 94.8075C247.025 94.8246 247.055 94.8481 247.079 94.8766C247.103 94.9051 247.121 94.9381 247.132 94.9736C247.973 97.4628 249.018 99.8781 250.258 102.195C250.293 102.262 250.3 102.341 250.278 102.413C250.256 102.486 250.206 102.547 250.139 102.584L250.06 102.61Z" fill="white"/>
<path d="M248.189 109.271C248.135 109.281 248.079 109.275 248.028 109.256C247.977 109.236 247.932 109.202 247.899 109.159C247.855 109.095 247.839 109.018 247.852 108.942C247.866 108.867 247.909 108.8 247.971 108.756C250.811 106.768 254.257 105.835 257.712 106.118C257.787 106.128 257.855 106.167 257.902 106.227C257.948 106.287 257.969 106.363 257.959 106.438C257.949 106.513 257.91 106.582 257.85 106.628C257.79 106.674 257.714 106.695 257.639 106.686C254.331 106.434 251.036 107.32 248.301 109.198C248.269 109.229 248.231 109.254 248.189 109.271Z" fill="white"/>
<path d="M165.427 42.8826L149.355 33.604L133.291 42.8826L149.355 52.1612L165.427 42.8826Z" fill="#F5F5F5"/>
<path d="M149.355 70.725L165.427 61.4464V42.8826L149.355 52.1612V70.725Z" fill="#EBEBEB"/>
<path d="M152.454 64.5658C152.369 64.5674 152.285 64.5469 152.21 64.5065C152.107 64.4315 152.026 64.3316 151.972 64.2162C151.919 64.1007 151.897 63.9737 151.907 63.847V61.8686V61.7235H152.005L153.549 60.8201V63.0161C153.546 63.2989 153.476 63.5771 153.344 63.8272C153.212 64.0774 153.022 64.2922 152.79 64.4537C152.69 64.5211 152.574 64.5598 152.454 64.5658ZM152.157 62.0137V63.8338C152.146 63.9185 152.157 64.0046 152.188 64.0841C152.219 64.1637 152.27 64.2341 152.335 64.2888C152.389 64.3127 152.447 64.3216 152.506 64.3147C152.564 64.3077 152.619 64.2851 152.665 64.2493C152.862 64.1115 153.025 63.9294 153.139 63.7175C153.254 63.5057 153.317 63.27 153.324 63.0293V62.871H152.751L152.639 62.0994L152.157 62.0137ZM152.948 62.6204H153.305V61.2685L152.381 61.8027L152.836 61.8884L152.948 62.6204Z" fill="white"/>
<path d="M152.731 66.1353C152.698 66.1353 152.666 66.1221 152.642 66.0986C152.619 66.0751 152.606 66.0432 152.606 66.01V64.3613C152.605 64.3446 152.607 64.3279 152.613 64.3123C152.619 64.2966 152.628 64.2824 152.64 64.2706C152.652 64.2588 152.666 64.2496 152.682 64.2436C152.698 64.2377 152.714 64.2351 152.731 64.236C152.764 64.236 152.796 64.2492 152.82 64.2727C152.843 64.2962 152.856 64.3281 152.856 64.3613V65.9836C152.859 66.002 152.858 66.0207 152.853 66.0386C152.848 66.0565 152.839 66.0732 152.828 66.0875C152.816 66.1018 152.801 66.1135 152.784 66.1217C152.768 66.1299 152.75 66.1346 152.731 66.1353Z" fill="white"/>
<path d="M152.012 66.5507C151.99 66.5506 151.968 66.5443 151.949 66.5327C151.931 66.5211 151.916 66.5045 151.906 66.4848C151.897 66.4713 151.891 66.456 151.888 66.4399C151.886 66.4238 151.886 66.4073 151.891 66.3917C151.895 66.376 151.903 66.3614 151.914 66.349C151.924 66.3366 151.937 66.3267 151.952 66.3199L153.383 65.489C153.398 65.4807 153.413 65.4754 153.43 65.4732C153.446 65.4711 153.463 65.4722 153.479 65.4765C153.494 65.4808 153.509 65.4882 153.522 65.4982C153.536 65.5083 153.546 65.5209 153.555 65.5352C153.57 65.5644 153.573 65.5981 153.565 65.6298C153.556 65.6615 153.536 65.6889 153.509 65.7066L152.071 66.531L152.012 66.5507Z" fill="white"/>
<path d="M157.13 63.7019C157.085 63.7157 157.037 63.7157 156.992 63.7019C156.943 63.6696 156.905 63.6251 156.879 63.573C156.854 63.5209 156.842 63.463 156.847 63.4052V63.0689C156.846 63.0527 156.848 63.0366 156.854 63.0214C156.859 63.0062 156.868 62.9924 156.879 62.9806C156.89 62.9689 156.903 62.9596 156.918 62.9532C156.933 62.9468 156.949 62.9435 156.965 62.9436C156.982 62.9426 156.999 62.9452 157.014 62.9512C157.03 62.9571 157.044 62.9663 157.056 62.9781C157.068 62.99 157.077 63.0042 157.083 63.0198C157.089 63.0354 157.091 63.0522 157.091 63.0689V63.3458C157.091 63.3986 157.091 63.425 157.091 63.425C157.091 63.425 157.13 63.425 157.17 63.425C157.246 63.3553 157.307 63.2695 157.347 63.1738C157.387 63.078 157.405 62.9746 157.4 62.871V60.708C157.4 60.6918 157.404 60.6758 157.41 60.661C157.416 60.6461 157.426 60.6327 157.438 60.6216C157.449 60.6105 157.463 60.6019 157.478 60.5964C157.493 60.5908 157.51 60.5884 157.526 60.5893C157.557 60.5893 157.587 60.6018 157.61 60.6241C157.632 60.6463 157.644 60.6765 157.644 60.708V62.9106C157.649 63.0574 157.62 63.2034 157.56 63.3372C157.499 63.471 157.409 63.589 157.295 63.6822C157.242 63.6991 157.186 63.7058 157.13 63.7019Z" fill="white"/>
<path d="M155.824 61.7829V61.5719C155.855 61.0226 156.014 60.4883 156.289 60.0118C156.564 59.5353 156.947 59.13 157.407 58.8285C157.572 58.69 157.775 58.6055 157.989 58.5864C158.203 58.5673 158.418 58.6147 158.605 58.7219C158.791 58.8292 158.94 58.9913 159.032 59.1861C159.123 59.381 159.152 59.5992 159.115 59.8111V59.8836L155.824 61.7829ZM158.146 58.8549C157.928 58.8617 157.715 58.9278 157.532 59.0461C157.141 59.3044 156.809 59.6434 156.558 60.0403C156.308 60.4372 156.146 60.8829 156.081 61.3476L158.864 59.7451C158.875 59.5895 158.845 59.4338 158.778 59.2929C158.711 59.152 158.609 59.0307 158.482 58.9406C158.379 58.8825 158.263 58.8529 158.146 58.8549Z" fill="white"/>
<path d="M161.541 61.1696C161.509 61.1697 161.478 61.1574 161.455 61.1353C161.432 61.1132 161.418 61.083 161.416 61.0509V56.8436C161.416 56.8103 161.429 56.7785 161.453 56.755C161.476 56.7315 161.508 56.7183 161.541 56.7183C161.575 56.7183 161.606 56.7315 161.63 56.755C161.653 56.7785 161.667 56.8103 161.667 56.8436V61.0509C161.665 61.083 161.651 61.1132 161.628 61.1353C161.604 61.1574 161.573 61.1697 161.541 61.1696Z" fill="white"/>
<path d="M161.204 57.7996H161.158C161.143 57.7931 161.129 57.7837 161.118 57.7719C161.106 57.7601 161.097 57.7462 161.091 57.7308C161.085 57.7155 161.082 57.6991 161.082 57.6826C161.082 57.6661 161.086 57.6499 161.092 57.6347L161.534 56.6191L162.022 57.1863C162.033 57.1984 162.04 57.2125 162.045 57.2276C162.05 57.2428 162.052 57.2588 162.051 57.2747C162.05 57.2907 162.045 57.3062 162.038 57.3204C162.031 57.3347 162.021 57.3473 162.009 57.3577C161.997 57.3681 161.983 57.376 161.968 57.381C161.952 57.3859 161.936 57.3879 161.92 57.3867C161.905 57.3854 161.889 57.3811 161.875 57.3739C161.861 57.3666 161.848 57.3567 161.837 57.3445L161.6 57.0808L161.316 57.7402C161.305 57.7597 161.289 57.7756 161.269 57.7861C161.249 57.7966 161.227 57.8013 161.204 57.7996Z" fill="white"/>
<path d="M162.708 60.5231C162.676 60.5214 162.646 60.5075 162.624 60.4842C162.601 60.4609 162.589 60.43 162.589 60.3978V56.1905C162.585 56.1721 162.585 56.153 162.589 56.1345C162.593 56.1161 162.601 56.0989 162.613 56.0841C162.625 56.0693 162.64 56.0573 162.657 56.0491C162.674 56.0409 162.692 56.0366 162.711 56.0366C162.73 56.0366 162.749 56.0409 162.766 56.0491C162.783 56.0573 162.798 56.0693 162.809 56.0841C162.821 56.0989 162.829 56.1161 162.834 56.1345C162.838 56.153 162.838 56.1721 162.833 56.1905V60.3978C162.833 60.4311 162.82 60.4629 162.797 60.4864C162.773 60.5099 162.741 60.5231 162.708 60.5231Z" fill="white"/>
<path d="M162.345 57.1467H162.299C162.284 57.1403 162.27 57.1309 162.258 57.1191C162.247 57.1073 162.238 57.0933 162.232 57.078C162.225 57.0627 162.222 57.0463 162.223 57.0298C162.223 57.0133 162.226 56.997 162.233 56.9819L162.675 55.9663L163.163 56.5334C163.185 56.5567 163.197 56.5873 163.197 56.6192C163.197 56.651 163.185 56.6817 163.163 56.7049C163.138 56.7271 163.107 56.7395 163.074 56.7395C163.041 56.7395 163.009 56.7271 162.985 56.7049L162.754 56.4345L162.47 57.094C162.457 57.1139 162.438 57.1295 162.415 57.1388C162.393 57.1482 162.369 57.1509 162.345 57.1467Z" fill="white"/>
<path d="M149.354 70.725L133.283 61.4464L133.29 42.8826L149.354 52.1612V70.725Z" fill="#E0E0E0"/>
<path d="M142.193 48.0264L158.251 38.7412L156.438 37.6926L140.373 46.9778L142.193 48.0264Z" fill="white"/>
<path d="M135.723 53.5263L141.48 56.8237C141.811 57.0418 142.087 57.3342 142.285 57.6777C142.483 58.0212 142.598 58.4062 142.621 58.802V62.3499C142.621 63.0819 142.106 63.3787 141.48 63.0094L135.723 59.7121C135.391 59.4943 135.116 59.202 134.917 58.8584C134.719 58.5149 134.604 58.1297 134.582 57.7337V54.1858C134.582 53.4538 135.096 53.1636 135.723 53.5263Z" fill="#0061F6"/>
<path d="M135.281 54.4099L135.499 54.5418V58.4788L135.281 58.3535V54.4099Z" fill="#0061F6"/>
<path d="M136.172 54.9243L136.548 55.1485V59.0855L136.172 58.8679V54.9243Z" fill="#0061F6"/>
<path d="M137.062 55.4387L137.28 55.564V59.5076L137.062 59.3823V55.4387Z" fill="#0061F6"/>
<path d="M137.729 55.8213L138.17 56.0785V60.0221L137.729 59.7583V55.8213Z" fill="#0061F6"/>
<path d="M138.836 56.4675L139.06 56.5928V60.5364L138.836 60.4045V56.4675Z" fill="#0061F6"/>
<path d="M139.483 56.8303L139.945 57.1073V61.0443L139.477 60.7673L139.483 56.8303Z" fill="#0061F6"/>
<path d="M140.617 57.4963L140.835 57.6216V61.5586L140.617 61.4333V57.4963Z" fill="#0061F6"/>
<path d="M141.125 57.7798L141.237 57.8457V61.7827L141.125 61.7234V57.7798Z" fill="#0061F6"/>
<path d="M140.215 57.2786L140.32 57.3445V61.2815L140.215 61.2221V57.2786Z" fill="#0061F6"/>
<path d="M138.42 56.2302L138.525 56.2896V60.2331L138.42 60.1672V56.2302Z" fill="#0061F6"/>
<path d="M137.438 55.6631L137.55 55.729V59.6726L137.438 59.6067V55.6631Z" fill="#0061F6"/>
<path d="M136.732 55.2739L136.845 55.3399V59.2835L136.732 59.2175V55.2739Z" fill="#0061F6"/>
<path d="M135.775 54.6936L135.888 54.7595V58.7031L135.775 58.6372V54.6936Z" fill="#0061F6"/>
<path d="M141.508 58.0042L141.725 58.1294V62.073L141.508 61.9477V58.0042Z" fill="#0061F6"/>
<path d="M144 39.7898L125.245 28.968L106.496 39.7898L125.245 50.6181L144 39.7898Z" fill="#F5F5F5"/>
<path d="M117.206 45.9755L135.961 35.1538L134.141 34.1052L115.393 44.927L117.206 45.9755Z" fill="white"/>
<path d="M125.244 84.6398L143.999 73.818V39.7898L125.244 50.6181V84.6398Z" fill="#EBEBEB"/>
<path d="M128.343 78.5133C128.258 78.5148 128.173 78.492 128.099 78.4474C127.995 78.3738 127.913 78.2741 127.859 78.1583C127.806 78.0425 127.784 77.9148 127.796 77.7879V75.8095V75.6644H127.902L129.438 74.761V76.957C129.435 77.2396 129.364 77.5174 129.233 77.7674C129.101 78.0174 128.911 78.2324 128.68 78.3946C128.581 78.4643 128.464 78.5054 128.343 78.5133ZM128.047 75.9612V77.7813C128.036 77.866 128.046 77.9521 128.077 78.0317C128.109 78.1112 128.159 78.1816 128.225 78.2363C128.278 78.2602 128.337 78.2691 128.395 78.2622C128.453 78.2552 128.508 78.2326 128.554 78.1968C128.752 78.059 128.914 77.8769 129.029 77.665C129.143 77.4532 129.207 77.2175 129.214 76.9768V76.8185H128.64L128.528 76.0469L128.047 75.9612ZM128.838 76.5679H129.227V75.216L128.304 75.7568L128.759 75.8359L128.838 76.5679Z" fill="white"/>
<path d="M128.621 80.0564C128.588 80.0564 128.556 80.0432 128.533 80.0197C128.509 79.9962 128.496 79.9643 128.496 79.9311V78.2759C128.496 78.2597 128.499 78.2437 128.506 78.2289C128.512 78.214 128.521 78.2006 128.533 78.1895C128.545 78.1784 128.559 78.1698 128.574 78.1642C128.589 78.1587 128.605 78.1563 128.621 78.1572C128.654 78.1571 128.684 78.1694 128.708 78.1915C128.731 78.2136 128.745 78.2438 128.747 78.2759V79.9311C128.745 79.9638 128.731 79.9948 128.708 80.0179C128.685 80.0411 128.654 80.0548 128.621 80.0564Z" fill="white"/>
<path d="M127.909 80.4917C127.888 80.4921 127.867 80.4869 127.848 80.4764C127.83 80.466 127.814 80.4508 127.804 80.4323C127.789 80.4031 127.785 80.3693 127.794 80.3376C127.802 80.3059 127.822 80.2785 127.85 80.2608L129.281 79.4365C129.295 79.4283 129.311 79.4229 129.327 79.4207C129.344 79.4186 129.36 79.4197 129.376 79.424C129.392 79.4283 129.407 79.4357 129.42 79.4457C129.433 79.4558 129.444 79.4684 129.452 79.4827C129.46 79.4965 129.466 79.5117 129.468 79.5276C129.47 79.5434 129.469 79.5595 129.464 79.5749C129.46 79.5903 129.453 79.6047 129.443 79.6172C129.433 79.6297 129.42 79.64 129.406 79.6475L127.969 80.4785C127.951 80.489 127.93 80.4936 127.909 80.4917Z" fill="white"/>
<path d="M133.019 77.6232C132.971 77.6233 132.923 77.612 132.88 77.5902C132.832 77.5579 132.793 77.5134 132.768 77.4613C132.742 77.4092 132.731 77.3513 132.735 77.2934V76.9505C132.735 76.9344 132.738 76.9184 132.745 76.9035C132.751 76.8887 132.761 76.8753 132.772 76.8642C132.784 76.853 132.798 76.8444 132.813 76.8389C132.828 76.8333 132.844 76.8309 132.86 76.8318C132.876 76.8318 132.892 76.8349 132.906 76.8408C132.92 76.8468 132.933 76.8556 132.944 76.8666C132.955 76.8776 132.964 76.8907 132.97 76.9051C132.976 76.9195 132.979 76.9349 132.979 76.9505V77.2934C132.979 77.3396 132.979 77.366 132.979 77.3726C132.979 77.3792 133.019 77.3726 133.058 77.3726C133.135 77.3016 133.196 77.2146 133.236 77.1178C133.276 77.021 133.294 76.9166 133.289 76.812V74.616C133.289 74.5828 133.302 74.5509 133.326 74.5274C133.349 74.5039 133.381 74.4907 133.414 74.4907C133.447 74.4923 133.478 74.506 133.501 74.5292C133.524 74.5524 133.538 74.5833 133.54 74.616V76.812C133.546 76.9597 133.517 77.1067 133.455 77.2409C133.393 77.3751 133.3 77.4925 133.184 77.5836C133.132 77.6092 133.076 77.6227 133.019 77.6232Z" fill="white"/>
<path d="M131.715 75.704V75.4864C131.746 74.9382 131.906 74.405 132.18 73.9296C132.455 73.4543 132.838 73.0501 133.298 72.7496C133.462 72.6111 133.665 72.5266 133.88 72.5075C134.094 72.4885 134.309 72.5358 134.495 72.6431C134.682 72.7504 134.831 72.9124 134.922 73.1073C135.013 73.3021 135.043 73.5203 135.006 73.7322V73.8048L131.715 75.704ZM134.036 72.7694C133.819 72.7794 133.607 72.8453 133.423 72.9607C133.03 73.2197 132.698 73.5597 132.448 73.9578C132.197 74.3559 132.035 74.8029 131.972 75.2688L134.755 73.6663C134.765 73.5098 134.735 73.3534 134.668 73.2116C134.601 73.0697 134.499 72.9471 134.372 72.8552C134.269 72.799 134.154 72.7696 134.036 72.7694Z" fill="white"/>
<path d="M137.457 75.0908C137.424 75.0908 137.392 75.0776 137.369 75.0541C137.345 75.0306 137.332 74.9987 137.332 74.9655V70.7581C137.332 70.7249 137.345 70.693 137.369 70.6695C137.392 70.646 137.424 70.6328 137.457 70.6328C137.491 70.6328 137.522 70.646 137.546 70.6695C137.569 70.693 137.583 70.7249 137.583 70.7581V74.9655C137.583 74.9987 137.569 75.0306 137.546 75.0541C137.522 75.0776 137.491 75.0908 137.457 75.0908Z" fill="white"/>
<path d="M137.095 71.721H137.049C137.034 71.7152 137.02 71.7064 137.009 71.6953C136.997 71.6841 136.988 71.6707 136.982 71.6559C136.976 71.6411 136.973 71.6252 136.973 71.6092C136.973 71.5932 136.976 71.5774 136.983 71.5627L137.424 70.5471L137.912 71.1143C137.933 71.1387 137.944 71.1706 137.941 71.2027C137.939 71.2349 137.924 71.2647 137.899 71.2857C137.875 71.3067 137.843 71.3171 137.811 71.3146C137.779 71.3122 137.749 71.297 137.728 71.2725L137.49 71.0021L137.207 71.6616C137.196 71.6811 137.179 71.697 137.159 71.7075C137.14 71.718 137.117 71.7227 137.095 71.721Z" fill="white"/>
<path d="M138.599 74.4379C138.568 74.4379 138.538 74.4254 138.515 74.4031C138.493 74.3808 138.481 74.3507 138.481 74.3192V70.1118C138.48 70.0957 138.482 70.0795 138.488 70.0644C138.493 70.0492 138.502 70.0353 138.513 70.0236C138.524 70.0119 138.538 70.0025 138.552 69.9961C138.567 69.9898 138.583 69.9865 138.599 69.9865C138.616 69.9856 138.633 69.9881 138.648 69.9941C138.664 70.0001 138.678 70.0093 138.69 70.0211C138.702 70.0329 138.711 70.0471 138.717 70.0628C138.723 70.0784 138.726 70.0951 138.725 70.1118V74.3192C138.725 74.3353 138.721 74.3513 138.715 74.3662C138.709 74.381 138.699 74.3944 138.688 74.4055C138.676 74.4166 138.662 74.4252 138.647 74.4308C138.632 74.4364 138.615 74.4388 138.599 74.4379Z" fill="white"/>
<path d="M138.242 71.0681H138.19C138.16 71.0538 138.137 71.029 138.125 70.9985C138.112 70.968 138.112 70.934 138.124 70.9033L138.565 69.8877L139.06 70.4548C139.08 70.4787 139.092 70.5091 139.092 70.5406C139.092 70.572 139.08 70.6024 139.06 70.6263C139.048 70.6381 139.035 70.6474 139.019 70.6538C139.004 70.6601 138.988 70.6634 138.971 70.6634C138.954 70.6634 138.938 70.6601 138.923 70.6538C138.907 70.6474 138.894 70.6381 138.882 70.6263L138.651 70.3559L138.368 71.0154C138.355 71.0359 138.336 71.052 138.313 71.0615C138.291 71.0709 138.266 71.0732 138.242 71.0681Z" fill="white"/>
<path d="M125.245 84.6398L106.496 73.818V39.7898L125.245 50.6181V84.6398Z" fill="#E0E0E0"/>
<path d="M110.307 66.742L116.057 70.0393C116.39 70.2563 116.667 70.5483 116.866 70.8919C117.066 71.2355 117.182 71.6211 117.205 72.0177V75.5722C117.205 76.2976 116.69 76.5943 116.057 76.2316L110.307 72.9343C109.974 72.7177 109.698 72.4256 109.499 72.0818C109.301 71.738 109.187 71.3522 109.166 70.9559V67.408C109.166 66.6431 109.68 66.3793 110.307 66.742Z" fill="#F5F5F5"/>
<path d="M109.865 67.6257L110.083 67.7576V71.6946L109.865 71.5693V67.6257Z" fill="#E0E0E0"/>
<path d="M110.756 68.1401L111.132 68.3644V72.3079L110.756 72.0837V68.1401Z" fill="#E0E0E0"/>
<path d="M111.641 68.6543L111.865 68.7796L111.858 72.7232L111.641 72.5979V68.6543Z" fill="#E0E0E0"/>
<path d="M112.312 69.0369L112.748 69.2941V73.2376L112.312 72.9738V69.0369Z" fill="#E0E0E0"/>
<path d="M113.42 69.6831L113.638 69.8084V73.752L113.42 73.6201V69.6831Z" fill="#E0E0E0"/>
<path d="M114.061 70.0459L114.529 70.3229V74.2599L114.061 73.9829V70.0459Z" fill="#E0E0E0"/>
<path d="M115.201 70.7053L115.419 70.8372V74.7742L115.201 74.6489V70.7053Z" fill="#E0E0E0"/>
<path d="M115.709 70.9956L115.821 71.0615V75.0051L115.709 74.9392V70.9956Z" fill="#E0E0E0"/>
<path d="M114.799 70.4944L114.904 70.5603V74.4973L114.799 74.438V70.4944Z" fill="#E0E0E0"/>
<path d="M113.006 69.4458L113.111 69.5051V73.4487L113.006 73.3828V69.4458Z" fill="#E0E0E0"/>
<path d="M112.021 68.8787L112.127 68.9446V72.8882L112.021 72.8222V68.8787Z" fill="#E0E0E0"/>
<path d="M111.316 68.4895L111.429 68.5554V72.499L111.316 72.4331V68.4895Z" fill="#E0E0E0"/>
<path d="M110.361 67.9092L110.473 67.9751V71.9187L110.361 71.8528V67.9092Z" fill="#E0E0E0"/>
<path d="M116.092 71.2197L116.309 71.345V75.2886L116.092 75.1633V71.2197Z" fill="#E0E0E0"/>
<path d="M115.393 49.319L117.206 50.3676V45.9755L115.393 44.927V49.319Z" fill="#F0F0F0"/>
<path d="M87.7417 75.3612L74.3481 67.6323L55.5996 78.4541L68.9933 86.1896L87.7417 75.3612Z" fill="#F5F5F5"/>
<path d="M68.9922 117.118L87.7407 106.296V75.3611L68.9922 86.1894V117.118Z" fill="#EBEBEB"/>
<path d="M72.0846 110.965C72.0007 110.967 71.9182 110.944 71.8472 110.9C71.7436 110.825 71.6612 110.726 71.608 110.61C71.5548 110.494 71.5327 110.367 71.5438 110.24V108.262V108.117H71.6427L73.1859 107.213V109.409C73.1827 109.692 73.1122 109.97 72.9803 110.22C72.8484 110.47 72.6589 110.685 72.4275 110.847C72.3256 110.916 72.2074 110.957 72.0846 110.965ZM71.7944 108.413V110.233C71.7822 110.318 71.7921 110.405 71.8233 110.484C71.8545 110.564 71.9059 110.635 71.9725 110.688C72.0264 110.71 72.0848 110.717 72.1423 110.71C72.1999 110.703 72.2548 110.682 72.3022 110.649C72.4997 110.511 72.6622 110.329 72.7767 110.117C72.8912 109.905 72.9546 109.67 72.9617 109.429V109.271H72.3879L72.2758 108.499L71.7944 108.413ZM72.5858 109.02H72.9419V107.662L72.0186 108.202L72.4737 108.281L72.5858 109.02Z" fill="white"/>
<path d="M72.3694 112.535C72.3362 112.535 72.3043 112.522 72.2808 112.498C72.2573 112.475 72.2441 112.443 72.2441 112.41V110.754C72.2441 110.738 72.2474 110.722 72.2538 110.707C72.2601 110.693 72.2695 110.679 72.2812 110.668C72.2929 110.657 72.3068 110.648 72.322 110.643C72.3372 110.637 72.3533 110.635 72.3694 110.636C72.4009 110.636 72.4311 110.648 72.4534 110.67C72.4756 110.693 72.4881 110.723 72.4881 110.754V112.41C72.4882 112.442 72.4759 112.473 72.4538 112.496C72.4317 112.519 72.4015 112.533 72.3694 112.535Z" fill="white"/>
<path d="M71.6502 112.944C71.6288 112.945 71.6075 112.94 71.5888 112.93C71.5701 112.919 71.5548 112.903 71.5447 112.884C71.5352 112.871 71.5287 112.855 71.5256 112.839C71.5224 112.823 71.5228 112.806 71.5265 112.79C71.5302 112.774 71.5373 112.759 71.5472 112.745C71.5572 112.732 71.5698 112.721 71.5843 112.713L73.0219 111.889C73.0362 111.88 73.052 111.875 73.0683 111.873C73.0847 111.871 73.1013 111.872 73.1172 111.876C73.1332 111.88 73.1481 111.888 73.1611 111.898C73.1742 111.908 73.1852 111.921 73.1934 111.935C73.2015 111.949 73.2067 111.964 73.2088 111.98C73.2109 111.996 73.2097 112.012 73.2054 112.027C73.2011 112.042 73.1937 112.057 73.1837 112.069C73.1737 112.082 73.1613 112.092 73.1472 112.1L71.7096 112.931C71.6917 112.941 71.6709 112.946 71.6502 112.944Z" fill="white"/>
<path d="M76.7668 110.101C76.7187 110.102 76.6712 110.09 76.6283 110.068C76.5802 110.036 76.5414 109.992 76.5159 109.94C76.4904 109.887 76.4792 109.83 76.4832 109.772V109.429C76.4832 109.397 76.4957 109.367 76.518 109.345C76.5403 109.323 76.5704 109.31 76.6019 109.31C76.6181 109.309 76.6342 109.312 76.6494 109.317C76.6646 109.323 76.6784 109.331 76.6902 109.342C76.7019 109.354 76.7112 109.367 76.7176 109.382C76.724 109.397 76.7273 109.413 76.7272 109.429V109.772C76.7272 109.818 76.7272 109.844 76.7272 109.851C76.7272 109.857 76.7668 109.851 76.8064 109.851C76.882 109.779 76.9416 109.692 76.9813 109.595C77.0211 109.499 77.0401 109.395 77.0372 109.29V107.094C77.0329 107.076 77.0328 107.057 77.0369 107.038C77.041 107.02 77.0493 107.003 77.061 106.988C77.0727 106.973 77.0877 106.961 77.1047 106.953C77.1217 106.945 77.1403 106.94 77.1592 106.94C77.1781 106.94 77.1967 106.945 77.2137 106.953C77.2307 106.961 77.2456 106.973 77.2574 106.988C77.2691 107.003 77.2773 107.02 77.2814 107.038C77.2856 107.057 77.2855 107.076 77.2812 107.094V109.29C77.2866 109.437 77.2579 109.583 77.1972 109.717C77.1366 109.851 77.0457 109.969 76.9317 110.062C76.8804 110.087 76.824 110.101 76.7668 110.101Z" fill="white"/>
<path d="M75.4609 108.189V107.972C75.4922 107.423 75.6517 106.89 75.9266 106.415C76.2014 105.939 76.5841 105.535 77.0436 105.235C77.2074 105.095 77.4106 105.009 77.6252 104.989C77.8398 104.969 78.0552 105.017 78.2418 105.125C78.4284 105.232 78.577 105.395 78.6671 105.591C78.7572 105.787 78.7845 106.006 78.7451 106.217V106.29L75.4609 108.189ZM77.7822 105.255C77.5648 105.265 77.3535 105.33 77.1689 105.446C76.7765 105.705 76.4441 106.045 76.1938 106.443C75.9436 106.841 75.7814 107.288 75.7181 107.754L78.5011 106.145C78.5103 105.989 78.4801 105.834 78.4133 105.693C78.3464 105.553 78.245 105.431 78.1186 105.34C78.0179 105.283 77.9047 105.251 77.7888 105.248L77.7822 105.255Z" fill="white"/>
<path d="M81.2054 107.569C81.1721 107.569 81.1403 107.556 81.1168 107.533C81.0933 107.509 81.0801 107.477 81.0801 107.444V103.237C81.0801 103.203 81.0933 103.172 81.1168 103.148C81.1403 103.125 81.1721 103.111 81.2054 103.111C81.2386 103.111 81.2705 103.125 81.294 103.148C81.3175 103.172 81.3307 103.203 81.3307 103.237V107.444C81.3307 107.477 81.3175 107.509 81.294 107.533C81.2705 107.556 81.2386 107.569 81.2054 107.569Z" fill="white"/>
<path d="M80.8428 104.232H80.7966C80.7816 104.227 80.768 104.218 80.7566 104.207C80.7451 104.196 80.736 104.182 80.7298 104.167C80.7237 104.153 80.7206 104.137 80.7207 104.121C80.7208 104.105 80.7242 104.089 80.7306 104.074L81.1725 103.059L81.6605 103.626C81.6815 103.65 81.6919 103.682 81.6894 103.714C81.6869 103.746 81.6718 103.776 81.6473 103.797C81.6352 103.808 81.6211 103.815 81.6059 103.82C81.5908 103.825 81.5748 103.827 81.5588 103.826C81.5267 103.824 81.4968 103.808 81.4758 103.784L81.2384 103.514L80.9549 104.173C80.9437 104.193 80.9272 104.208 80.9074 104.219C80.8876 104.229 80.8651 104.234 80.8428 104.232Z" fill="white"/>
<path d="M82.346 106.916C82.3139 106.916 82.283 106.904 82.2597 106.882C82.2363 106.86 82.2224 106.83 82.2207 106.798V102.59C82.2207 102.557 82.2339 102.525 82.2574 102.502C82.2809 102.478 82.3128 102.465 82.346 102.465C82.3627 102.464 82.3794 102.467 82.3951 102.473C82.4107 102.479 82.4249 102.488 82.4367 102.5C82.4486 102.511 82.4578 102.526 82.4637 102.541C82.4697 102.557 82.4723 102.574 82.4713 102.59V106.798C82.4713 106.814 82.468 106.83 82.4617 106.845C82.4553 106.86 82.446 106.873 82.4342 106.884C82.4225 106.895 82.4086 106.904 82.3935 106.909C82.3783 106.915 82.3621 106.917 82.346 106.916Z" fill="white"/>
<path d="M81.9834 103.573C81.9685 103.578 81.9521 103.578 81.9372 103.573C81.9223 103.567 81.9087 103.558 81.8972 103.547C81.8857 103.536 81.8766 103.522 81.8705 103.508C81.8643 103.493 81.8612 103.477 81.8613 103.461C81.8615 103.445 81.8649 103.429 81.8713 103.414L82.3131 102.399L82.8011 102.966C82.8229 102.989 82.835 103.02 82.835 103.052C82.835 103.084 82.8229 103.114 82.8011 103.138C82.7895 103.149 82.7756 103.159 82.7603 103.165C82.745 103.171 82.7286 103.175 82.7121 103.175C82.6955 103.175 82.6791 103.171 82.6639 103.165C82.6486 103.159 82.6347 103.149 82.6231 103.138L82.3922 102.867L82.1087 103.527C82.0943 103.545 82.0749 103.56 82.0527 103.568C82.0305 103.576 82.0065 103.578 81.9834 103.573Z" fill="white"/>
<path d="M68.9933 117.118L55.5996 109.389V78.4541L68.9933 86.1896V117.118Z" fill="#E0E0E0"/>
<path d="M61.8184 86.4401L63.6319 87.4887V83.0966L61.8184 82.0481V86.4401Z" fill="#F5F5F5"/>
<path d="M63.6319 83.0966L82.387 72.2683L80.5668 71.2197L61.8184 82.0481L63.6319 83.0966Z" fill="white"/>
<path d="M63.6312 101.654L39.5279 87.7393L15.418 101.654L39.5279 115.575L63.6312 101.654Z" fill="#F5F5F5"/>
<path d="M39.5273 134.132L63.6306 120.218V101.654L39.5273 115.575V134.132Z" fill="#EBEBEB"/>
<path d="M42.6214 127.973C42.538 127.971 42.4563 127.949 42.384 127.907C42.2809 127.832 42.1989 127.732 42.1457 127.617C42.0926 127.501 42.0702 127.374 42.0806 127.247V125.269V125.124H42.1796L43.7227 124.214V126.416C43.7184 126.698 43.6475 126.974 43.5156 127.223C43.3838 127.472 43.1949 127.686 42.9643 127.847C42.8628 127.918 42.7447 127.962 42.6214 127.973ZM42.3246 125.421V127.241C42.3129 127.325 42.3232 127.41 42.3544 127.489C42.3856 127.567 42.4367 127.636 42.5027 127.689C42.5567 127.714 42.6162 127.724 42.6753 127.718C42.7344 127.712 42.7909 127.691 42.839 127.656C43.0358 127.518 43.1977 127.335 43.3122 127.124C43.4266 126.912 43.4904 126.677 43.4985 126.436V126.271H42.905L42.7929 125.5L42.3246 125.421ZM43.116 126.027H43.4985V124.675L42.5818 125.216L43.0369 125.295L43.116 126.027Z" fill="white"/>
<path d="M42.8974 129.543C42.8818 129.543 42.8664 129.539 42.852 129.534C42.8376 129.528 42.8245 129.519 42.8135 129.508C42.8024 129.497 42.7937 129.484 42.7877 129.469C42.7818 129.455 42.7787 129.439 42.7787 129.424V127.769C42.7744 127.75 42.7743 127.731 42.7784 127.713C42.7825 127.694 42.7908 127.677 42.8025 127.662C42.8142 127.647 42.8292 127.635 42.8462 127.627C42.8632 127.619 42.8818 127.615 42.9007 127.615C42.9196 127.615 42.9382 127.619 42.9552 127.627C42.9722 127.635 42.9871 127.647 42.9989 127.662C43.0106 127.677 43.0188 127.694 43.023 127.713C43.0271 127.731 43.027 127.75 43.0227 127.769V129.424C43.0227 129.44 43.0194 129.456 43.0131 129.471C43.0067 129.486 42.9974 129.499 42.9856 129.51C42.9739 129.521 42.96 129.53 42.9448 129.535C42.9297 129.541 42.9135 129.543 42.8974 129.543Z" fill="white"/>
<path d="M42.178 129.951C42.1516 129.95 42.1264 129.94 42.106 129.923C42.0856 129.906 42.0711 129.883 42.0645 129.858C42.0579 129.832 42.0596 129.805 42.0693 129.78C42.0791 129.756 42.0963 129.735 42.1187 129.721L43.5563 128.896C43.5693 128.887 43.5843 128.88 43.6001 128.877C43.6159 128.874 43.6321 128.875 43.6478 128.878C43.6634 128.882 43.678 128.889 43.6907 128.899C43.7034 128.909 43.7137 128.922 43.7211 128.936C43.7306 128.949 43.7371 128.965 43.7403 128.981C43.7434 128.997 43.7431 129.014 43.7394 129.03C43.7357 129.046 43.7286 129.062 43.7186 129.075C43.7087 129.088 43.6961 129.099 43.6816 129.107L42.244 129.951H42.178Z" fill="white"/>
<path d="M47.2963 127.116C47.2528 127.125 47.2078 127.125 47.1644 127.116C47.114 127.083 47.0732 127.038 47.0465 126.985C47.0198 126.931 47.0081 126.872 47.0127 126.812V126.476C47.0127 126.443 47.0259 126.411 47.0494 126.387C47.0729 126.364 47.1047 126.351 47.138 126.351C47.1712 126.351 47.2031 126.364 47.2266 126.387C47.2501 126.411 47.2633 126.443 47.2633 126.476V126.812C47.2542 126.84 47.2542 126.87 47.2633 126.898C47.2633 126.898 47.3028 126.898 47.349 126.898C47.4234 126.825 47.4818 126.738 47.5204 126.641C47.559 126.545 47.577 126.441 47.5732 126.337V124.141C47.5748 124.109 47.5885 124.078 47.6117 124.055C47.6349 124.031 47.6658 124.018 47.6985 124.016C47.7318 124.016 47.7636 124.029 47.7871 124.053C47.8106 124.076 47.8238 124.108 47.8238 124.141V126.337C47.8292 126.484 47.8005 126.63 47.7399 126.764C47.6792 126.898 47.5883 127.016 47.4743 127.109C47.4163 127.125 47.3553 127.127 47.2963 127.116Z" fill="white"/>
<path d="M45.998 125.197V124.979C46.0267 124.43 46.1851 123.896 46.4602 123.42C46.7353 122.944 47.1193 122.541 47.5808 122.242C47.7445 122.102 47.9477 122.016 48.1623 121.997C48.3769 121.977 48.5923 122.024 48.7789 122.132C48.9655 122.24 49.1141 122.403 49.2042 122.598C49.2943 122.794 49.3216 123.013 49.2822 123.225V123.297L45.998 125.197ZM48.3193 122.262C48.1 122.273 47.8869 122.339 47.6995 122.453C47.3083 122.713 46.9771 123.053 46.728 123.451C46.4789 123.849 46.3177 124.296 46.2552 124.761L49.0316 123.152C49.0422 122.997 49.0133 122.842 48.9475 122.701C48.8818 122.561 48.7814 122.439 48.6557 122.348C48.5532 122.29 48.4371 122.26 48.3193 122.262Z" fill="white"/>
<path d="M51.7419 124.583C51.7252 124.584 51.7085 124.582 51.6928 124.576C51.6772 124.57 51.663 124.56 51.6512 124.549C51.6393 124.537 51.6301 124.523 51.6242 124.507C51.6182 124.491 51.6156 124.475 51.6166 124.458V120.251C51.6123 120.232 51.6122 120.213 51.6163 120.195C51.6204 120.176 51.6287 120.159 51.6404 120.144C51.6521 120.129 51.6671 120.117 51.6841 120.109C51.7011 120.101 51.7197 120.097 51.7386 120.097C51.7575 120.097 51.7761 120.101 51.7931 120.109C51.8101 120.117 51.825 120.129 51.8368 120.144C51.8485 120.159 51.8567 120.176 51.8609 120.195C51.865 120.213 51.8649 120.232 51.8606 120.251V124.458C51.8615 124.474 51.8591 124.49 51.8535 124.505C51.8479 124.521 51.8393 124.534 51.8282 124.546C51.8171 124.558 51.8037 124.567 51.7889 124.574C51.774 124.58 51.758 124.583 51.7419 124.583Z" fill="white"/>
<path d="M51.4109 121.213H51.3582C51.343 121.207 51.3292 121.198 51.3179 121.186C51.3065 121.174 51.2978 121.16 51.2922 121.144C51.2866 121.129 51.2843 121.112 51.2854 121.096C51.2866 121.079 51.2911 121.063 51.2988 121.049L51.7341 120.033L52.2287 120.6C52.2505 120.625 52.2614 120.658 52.2589 120.692C52.2565 120.725 52.2408 120.756 52.2155 120.778C52.1901 120.8 52.1571 120.811 52.1237 120.808C52.0903 120.806 52.0593 120.79 52.0374 120.765L51.8066 120.495L51.523 121.154C51.5113 121.173 51.4948 121.189 51.4751 121.199C51.4553 121.209 51.4332 121.214 51.4109 121.213Z" fill="white"/>
<path d="M52.8812 123.93C52.8479 123.93 52.8161 123.917 52.7926 123.894C52.7691 123.87 52.7559 123.838 52.7559 123.805V119.598C52.7559 119.564 52.7691 119.533 52.7926 119.509C52.8161 119.486 52.8479 119.472 52.8812 119.472C52.9144 119.472 52.9463 119.486 52.9698 119.509C52.9933 119.533 53.0065 119.564 53.0065 119.598V123.805C53.0065 123.838 52.9933 123.87 52.9698 123.894C52.9463 123.917 52.9144 123.93 52.8812 123.93Z" fill="white"/>
<path d="M52.5185 120.561H52.4724C52.4574 120.555 52.4438 120.546 52.4323 120.535C52.4209 120.524 52.4118 120.51 52.4056 120.496C52.3995 120.481 52.3963 120.465 52.3965 120.449C52.3966 120.433 52.4 120.417 52.4064 120.402L52.8483 119.38L53.3363 119.947C53.348 119.959 53.3574 119.973 53.3637 119.988C53.3701 120.003 53.3734 120.02 53.3734 120.036C53.3734 120.053 53.3701 120.069 53.3637 120.085C53.3574 120.1 53.348 120.114 53.3363 120.125C53.3252 120.137 53.3119 120.146 53.2972 120.152C53.2824 120.159 53.2666 120.162 53.2505 120.162C53.2345 120.162 53.2187 120.159 53.2039 120.152C53.1892 120.146 53.1759 120.137 53.1648 120.125L52.9274 119.855L52.6438 120.514C52.63 120.534 52.6106 120.549 52.5883 120.557C52.5659 120.565 52.5416 120.566 52.5185 120.561Z" fill="white"/>
<path d="M39.5279 134.132L15.418 120.218V101.654L39.5279 115.575V134.132Z" fill="#E0E0E0"/>
<path d="M26.5625 112.482L28.376 113.531V109.139L26.5625 108.09V112.482Z" fill="#F5F5F5"/>
<path d="M28.376 109.139L52.4859 95.2241L50.6724 94.1689L26.5625 108.09L28.376 109.139Z" fill="white"/>
<path d="M19.2366 113.142L24.9871 116.439C25.3198 116.656 25.5969 116.948 25.7962 117.292C25.9955 117.635 26.1114 118.021 26.1345 118.417V121.972C26.1345 122.697 25.6202 122.994 24.9871 122.631L19.2366 119.334C18.904 119.117 18.6273 118.825 18.4291 118.481C18.2308 118.138 18.1166 117.752 18.0957 117.356V113.808C18.0957 113.069 18.6101 112.805 19.2366 113.142Z" fill="#F5F5F5"/>
<path d="M18.7949 114.025L19.0125 114.151V118.094L18.7949 117.969V114.025Z" fill="#E0E0E0"/>
<path d="M19.6777 114.54L20.0602 114.764V118.701L19.6777 118.483V114.54Z" fill="#E0E0E0"/>
<path d="M20.5684 115.054L20.7926 115.179L20.786 119.123L20.5684 118.998V115.054Z" fill="#E0E0E0"/>
<path d="M21.2402 115.437L21.6821 115.694L21.6755 119.637L21.2402 119.374V115.437Z" fill="#E0E0E0"/>
<path d="M22.3496 116.083L22.5672 116.208V120.152L22.3496 120.02V116.083Z" fill="#E0E0E0"/>
<path d="M22.9883 116.446L23.4565 116.723V120.66L22.9883 120.383V116.446Z" fill="#E0E0E0"/>
<path d="M24.1289 117.112L24.3465 117.237V121.174L24.1289 121.049V117.112Z" fill="#E0E0E0"/>
<path d="M24.6367 117.395L24.7488 117.461V121.398L24.6367 121.339V117.395Z" fill="#E0E0E0"/>
<path d="M23.7266 116.894L23.8321 116.953V120.897L23.7266 120.838V116.894Z" fill="#E0E0E0"/>
<path d="M21.9336 115.845L22.0391 115.905V119.848L21.9336 119.782V115.845Z" fill="#E0E0E0"/>
<path d="M20.9512 115.278L21.0633 115.344V119.281L20.9512 119.222V115.278Z" fill="#E0E0E0"/>
<path d="M20.2461 114.889L20.3582 114.955V118.899L20.2461 118.833V114.889Z" fill="#E0E0E0"/>
<path d="M19.2891 114.309L19.4012 114.375V118.312L19.2891 118.252V114.309Z" fill="#E0E0E0"/>
<path d="M25.0195 117.619L25.2371 117.751V121.688L25.0195 121.563V117.619Z" fill="#E0E0E0"/>
<path d="M58.277 64.5393L39.5285 53.7109L20.7734 64.5393L39.5285 75.3611L58.277 64.5393Z" fill="#F5F5F5"/>
<path d="M39.5273 112.482L58.2758 101.654V64.5393L39.5273 75.3611V112.482Z" fill="#EBEBEB"/>
<path d="M42.6214 106.323C42.5385 106.324 42.4568 106.303 42.384 106.264C42.2809 106.189 42.1989 106.089 42.1457 105.974C42.0926 105.858 42.0702 105.731 42.0806 105.604V103.626V103.481H42.1796L43.7227 102.577V104.773C43.7189 105.056 43.6482 105.333 43.5164 105.583C43.3846 105.833 43.1954 106.048 42.9643 106.211C42.8618 106.278 42.7435 106.316 42.6214 106.323ZM42.3246 103.771V105.597C42.3142 105.681 42.325 105.766 42.3562 105.845C42.3873 105.923 42.4377 105.992 42.5027 106.046C42.5567 106.071 42.6162 106.081 42.6753 106.075C42.7344 106.069 42.7909 106.048 42.839 106.013C43.0359 105.873 43.1979 105.69 43.3122 105.477C43.4266 105.264 43.4904 105.028 43.4985 104.786V104.628H42.905L42.7929 103.856L42.3246 103.771ZM43.116 104.377H43.4985V103.026L42.5818 103.566L43.0369 103.645L43.116 104.377Z" fill="white"/>
<path d="M42.8982 107.892C42.882 107.892 42.866 107.889 42.8512 107.883C42.8363 107.876 42.8229 107.867 42.8118 107.855C42.8007 107.844 42.7921 107.83 42.7865 107.815C42.781 107.799 42.7786 107.783 42.7795 107.767V106.118C42.7786 106.102 42.781 106.086 42.7865 106.071C42.7921 106.056 42.8007 106.042 42.8118 106.03C42.8229 106.018 42.8363 106.009 42.8512 106.003C42.866 105.996 42.882 105.993 42.8982 105.993C42.9149 105.992 42.9316 105.995 42.9472 106.001C42.9629 106.007 42.9771 106.016 42.9889 106.028C43.0007 106.04 43.0099 106.054 43.0159 106.069C43.0218 106.085 43.0244 106.102 43.0235 106.118V107.767C43.0244 107.784 43.0218 107.8 43.0159 107.816C43.0099 107.832 43.0007 107.846 42.9889 107.858C42.9771 107.87 42.9629 107.879 42.9472 107.885C42.9316 107.891 42.9149 107.893 42.8982 107.892Z" fill="white"/>
<path d="M42.178 108.308C42.1516 108.306 42.1264 108.296 42.106 108.279C42.0856 108.262 42.0711 108.24 42.0645 108.214C42.0579 108.188 42.0596 108.161 42.0693 108.137C42.0791 108.112 42.0963 108.091 42.1187 108.077L43.5563 107.246C43.5851 107.229 43.6194 107.225 43.6516 107.234C43.6837 107.242 43.7111 107.263 43.7277 107.292C43.7444 107.321 43.7488 107.355 43.7402 107.387C43.7315 107.42 43.7104 107.447 43.6816 107.464L42.244 108.288C42.2246 108.301 42.2015 108.308 42.178 108.308Z" fill="white"/>
<path d="M47.2963 105.465C47.2494 105.466 47.2035 105.452 47.1645 105.426C47.1141 105.395 47.0732 105.351 47.0464 105.299C47.0196 105.247 47.008 105.188 47.0128 105.129V104.793C47.0128 104.76 47.026 104.728 47.0495 104.704C47.073 104.681 47.1048 104.667 47.1381 104.667C47.1713 104.667 47.2032 104.681 47.2267 104.704C47.2502 104.728 47.2634 104.76 47.2634 104.793V105.129C47.2543 105.157 47.2543 105.187 47.2634 105.215C47.2914 105.223 47.3211 105.223 47.3491 105.215C47.4244 105.144 47.4834 105.058 47.5221 104.962C47.5608 104.867 47.5783 104.764 47.5733 104.661V102.465C47.5733 102.432 47.5865 102.4 47.61 102.376C47.6335 102.353 47.6654 102.34 47.6986 102.34C47.7153 102.339 47.732 102.341 47.7477 102.347C47.7633 102.353 47.7775 102.362 47.7893 102.374C47.8012 102.386 47.8104 102.4 47.8163 102.416C47.8223 102.431 47.8249 102.448 47.8239 102.465V104.661C47.8293 104.808 47.8006 104.954 47.74 105.088C47.6793 105.222 47.5884 105.34 47.4744 105.432C47.4185 105.458 47.3575 105.469 47.2963 105.465Z" fill="white"/>
<path d="M45.998 103.573V103.362C46.0278 102.812 46.1865 102.278 46.4615 101.801C46.7365 101.324 47.1199 100.919 47.5808 100.619C47.746 100.482 47.9493 100.399 48.1631 100.381C48.3769 100.364 48.591 100.412 48.7765 100.52C48.962 100.628 49.1099 100.79 49.2003 100.984C49.2907 101.179 49.3193 101.396 49.2822 101.608V101.674L45.998 103.573ZM48.3193 100.645C48.1 100.656 47.8869 100.722 47.6995 100.836C47.309 101.095 46.9783 101.434 46.7293 101.831C46.4802 102.228 46.3186 102.674 46.2552 103.138L49.0316 101.535C49.0435 101.38 49.0151 101.225 48.9493 101.084C48.8834 100.943 48.7823 100.821 48.6557 100.731C48.5566 100.661 48.4402 100.62 48.3193 100.612V100.645Z" fill="white"/>
<path d="M51.7419 102.914C51.7086 102.914 51.6768 102.9 51.6533 102.877C51.6298 102.853 51.6166 102.821 51.6166 102.788V98.5808C51.6123 98.5625 51.6122 98.5433 51.6163 98.5249C51.6204 98.5065 51.6287 98.4892 51.6404 98.4744C51.6521 98.4597 51.6671 98.4477 51.6841 98.4395C51.7011 98.4313 51.7197 98.427 51.7386 98.427C51.7575 98.427 51.7761 98.4313 51.7931 98.4395C51.8101 98.4477 51.825 98.4597 51.8368 98.4744C51.8485 98.4892 51.8567 98.5065 51.8609 98.5249C51.865 98.5433 51.8649 98.5625 51.8606 98.5808V102.788C51.8606 102.82 51.8483 102.851 51.8262 102.875C51.8042 102.898 51.774 102.912 51.7419 102.914Z" fill="white"/>
<path d="M51.4109 99.5567H51.3582C51.343 99.5503 51.3292 99.5409 51.3179 99.5289C51.3065 99.517 51.2978 99.5028 51.2922 99.4873C51.2866 99.4718 51.2843 99.4553 51.2854 99.4388C51.2866 99.4224 51.2911 99.4064 51.2988 99.3918L51.7341 98.3762L52.2287 98.9434C52.2505 98.9666 52.2626 98.9972 52.2626 99.0291C52.2626 99.0609 52.2505 99.0916 52.2287 99.1148C52.2044 99.1371 52.1726 99.1494 52.1396 99.1494C52.1067 99.1494 52.0749 99.1371 52.0506 99.1148L51.8198 98.8444L51.5362 99.5039C51.5233 99.5245 51.5043 99.5406 51.4819 99.55C51.4595 99.5594 51.4347 99.5618 51.4109 99.5567Z" fill="white"/>
<path d="M52.8812 102.254C52.8484 102.252 52.8175 102.239 52.7943 102.215C52.7712 102.192 52.7575 102.161 52.7559 102.129V97.9212C52.7559 97.888 52.7691 97.8561 52.7926 97.8326C52.8161 97.8091 52.8479 97.7959 52.8812 97.7959C52.9144 97.7959 52.9463 97.8091 52.9698 97.8326C52.9933 97.8561 53.0065 97.888 53.0065 97.9212V102.129C53.0049 102.161 52.9911 102.192 52.968 102.215C52.9448 102.239 52.9139 102.252 52.8812 102.254Z" fill="white"/>
<path d="M52.5188 98.9104H52.4727C52.4575 98.9039 52.4437 98.8945 52.4322 98.8827C52.4207 98.871 52.4116 98.857 52.4054 98.8417C52.3993 98.8264 52.3963 98.81 52.3965 98.7935C52.3967 98.777 52.4002 98.7607 52.4067 98.7455L52.8486 97.73L53.3366 98.2971C53.3483 98.3088 53.3577 98.3226 53.364 98.3379C53.3704 98.3532 53.3737 98.3696 53.3737 98.3861C53.3737 98.4027 53.3704 98.4191 53.364 98.4344C53.3577 98.4497 53.3483 98.4635 53.3366 98.4752C53.3127 98.4956 53.2823 98.5068 53.2508 98.5068C53.2194 98.5068 53.189 98.4956 53.1651 98.4752L52.9277 98.2048L52.6441 98.8643C52.6297 98.883 52.6103 98.8973 52.5881 98.9054C52.566 98.9136 52.5419 98.9153 52.5188 98.9104Z" fill="white"/>
<path d="M39.5285 112.482L20.7734 101.654V64.5393L39.5285 75.3611V112.482Z" fill="#E0E0E0"/>
<path d="M29.668 74.0619L31.4881 75.1105V70.7251L29.668 69.6699V74.0619Z" fill="#F5F5F5"/>
<path d="M31.4881 70.725L50.2366 59.8967L48.423 58.8481L29.668 69.6699L31.4881 70.725Z" fill="white"/>
<path d="M24.5908 94.5779L30.3413 97.8752C30.6743 98.0914 30.9512 98.3834 31.1495 98.7273C31.3478 99.0712 31.4618 99.4571 31.4822 99.8536V103.401C31.4822 104.127 30.9744 104.424 30.3413 104.061L24.5908 100.764C24.257 100.548 23.9791 100.256 23.7796 99.9122C23.5802 99.5683 23.465 99.1822 23.4434 98.7853V95.2374C23.45 94.5119 23.9577 94.2152 24.5908 94.5779Z" fill="#F5F5F5"/>
<path d="M24.1426 95.468L24.3602 95.5933V99.5369L24.1426 99.405V95.468Z" fill="#E0E0E0"/>
<path d="M25.0332 95.9824L25.4091 96.2V100.144L25.0332 99.9194V95.9824Z" fill="#E0E0E0"/>
<path d="M25.9238 96.4902L26.1415 96.6221V100.559L25.9238 100.434V96.4902Z" fill="#E0E0E0"/>
<path d="M26.5957 96.8728L27.0309 97.1366V101.074L26.5957 100.816V96.8728Z" fill="#E0E0E0"/>
<path d="M27.7031 97.519L27.9207 97.6443V101.588L27.7031 101.463V97.519Z" fill="#E0E0E0"/>
<path d="M28.3438 97.8818L28.812 98.1588V102.102L28.3438 101.825V97.8818Z" fill="#E0E0E0"/>
<path d="M29.4844 98.5479L29.702 98.6732V102.617L29.4844 102.485V98.5479Z" fill="#E0E0E0"/>
<path d="M29.9922 98.8379L30.0977 98.8972V102.841L29.9922 102.775V98.8379Z" fill="#E0E0E0"/>
<path d="M29.0762 98.3301L29.1883 98.396V102.34L29.0762 102.274V98.3301Z" fill="#E0E0E0"/>
<path d="M27.2812 97.2815L27.3934 97.3474V101.284L27.2812 101.225V97.2815Z" fill="#E0E0E0"/>
<path d="M26.2988 96.7209L26.4109 96.7803V100.724L26.2988 100.658V96.7209Z" fill="#E0E0E0"/>
<path d="M25.5996 96.332L25.7051 96.3914V100.335L25.5996 100.269V96.332Z" fill="#E0E0E0"/>
<path d="M24.6445 95.7517L24.75 95.8111V99.7546L24.6445 99.6887V95.7517Z" fill="#E0E0E0"/>
<path d="M30.3672 99.0623L30.5914 99.1876V103.125L30.3672 102.999V99.0623Z" fill="#E0E0E0"/>
<path d="M20.9516 166.716L92.9252 208.262C93.8101 208.711 94.7884 208.945 95.7807 208.945C96.7729 208.945 97.7512 208.711 98.6361 208.262L256.333 117.257C257.909 116.347 257.909 114.869 256.333 113.959L184.36 72.4134C183.476 71.9613 182.497 71.7256 181.504 71.7256C180.511 71.7256 179.533 71.9613 178.649 72.4134L20.9516 163.419C19.3755 164.329 19.3755 165.806 20.9516 166.716Z" fill="#455A64"/>
<path d="M59.8521 186.005C61.0792 186.625 62.4344 186.947 63.8088 186.947C65.1833 186.947 66.5385 186.625 67.7656 186.005C69.9616 184.739 69.9616 182.708 67.7656 181.422C66.5394 180.8 65.1838 180.476 63.8088 180.476C62.4339 180.476 61.0783 180.8 59.8521 181.422C57.6561 182.708 57.6561 184.753 59.8521 186.005Z" fill="#263238"/>
<path d="M94.2763 208.262L22.3027 166.716C20.8915 165.899 20.7464 164.632 21.8609 163.722C21.157 164.279 20.5782 164.978 20.1623 165.773C19.7465 166.569 19.5028 167.443 19.4473 168.339V171.023C19.5014 172.013 19.7881 172.977 20.2842 173.837C20.7803 174.696 21.4718 175.426 22.3027 175.969L94.2763 217.515C95.1564 217.974 96.1393 218.201 97.1318 218.174V208.948C96.137 208.967 95.1539 208.731 94.2763 208.262Z" fill="#37474F"/>
<path d="M256.325 126.502C257.158 125.962 257.851 125.232 258.349 124.372C258.846 123.513 259.133 122.548 259.187 121.556V118.872C259.134 117.975 258.89 117.1 258.473 116.304C258.056 115.508 257.474 114.81 256.767 114.256C257.888 115.166 257.743 116.432 256.332 117.243L98.6348 208.262C97.7541 208.72 96.7716 208.947 95.7793 208.922V218.2C96.7716 218.226 97.7541 217.999 98.6348 217.541L256.325 126.502Z" fill="#263238"/>
<path d="M104.781 199.656L35.8939 159.864C34.9442 159.317 34.9442 158.427 35.8939 157.886L169.052 80.9863C169.584 80.7164 170.171 80.5757 170.767 80.5757C171.363 80.5757 171.95 80.7164 172.481 80.9863L241.395 120.772C242.338 121.319 242.338 122.203 241.395 122.75L108.184 199.656C107.656 199.922 107.073 200.06 106.483 200.06C105.892 200.06 105.309 199.922 104.781 199.656Z" fill="white"/>
<path d="M77.0251 177.439L85.0639 172.797L82.3865 171.253L74.3477 175.889L77.0251 177.439Z" fill="#0061F6"/>
<path d="M173.465 121.761L181.503 117.118L178.819 115.575L170.787 120.218L173.465 121.761Z" fill="#0061F6"/>
<path d="M189.535 112.482L197.574 107.84L194.896 106.296L186.857 110.932L189.535 112.482Z" fill="#0061F6"/>
<path d="M215.333 96.2266C215.645 96.3827 215.989 96.464 216.339 96.464C216.688 96.464 217.032 96.3827 217.344 96.2266C217.465 96.1852 217.57 96.107 217.645 96.0029C217.719 95.8989 217.759 95.7742 217.759 95.6462C217.759 95.5183 217.719 95.3936 217.645 95.2895C217.57 95.1855 217.465 95.1073 217.344 95.0659C217.033 94.9067 216.688 94.8237 216.339 94.8237C215.989 94.8237 215.644 94.9067 215.333 95.0659C215.212 95.1073 215.107 95.1855 215.032 95.2895C214.958 95.3936 214.918 95.5183 214.918 95.6462C214.918 95.7742 214.958 95.8989 215.032 96.0029C215.107 96.107 215.212 96.1852 215.333 96.2266Z" fill="#263238"/>
<path d="M218.546 105.334C219.168 105.649 219.856 105.813 220.554 105.813C221.252 105.813 221.939 105.649 222.562 105.334C223.67 104.674 223.67 103.652 222.562 103.012C221.939 102.697 221.252 102.533 220.554 102.533C219.856 102.533 219.168 102.697 218.546 103.012C217.438 103.652 217.438 104.694 218.546 105.334Z" fill="#263238"/>
<path d="M215.709 101.298C216.447 100.869 216.408 100.157 215.623 99.7019L202.434 92.0719C202.009 91.8444 201.537 91.7209 201.055 91.7117C200.574 91.7026 200.097 91.8079 199.664 92.0192C198.926 92.4478 198.965 93.16 199.75 93.6151L212.979 101.245C213.398 101.466 213.864 101.585 214.337 101.594C214.811 101.604 215.281 101.502 215.709 101.298Z" fill="#263238"/>
<path d="M193.196 70.3557L193.645 70.0919C193.335 71.2172 193.184 72.3803 193.196 73.5475V75.1566C193.196 80.9334 200.127 95.6922 202.68 100.915C202.943 101.462 199.442 105.188 199.442 105.188L203.603 102.788C203.603 102.788 214.002 94.215 214.002 87.1719V85.5629C214.002 78.4868 209.347 70.0655 203.603 66.7484C200.701 65.08 198.083 65.0206 196.197 66.2868L192.24 68.5553L193.196 70.3557ZM198.4 75.7567C198.4 72.4594 200.728 71.0943 203.603 72.7561C203.365 74.8862 207.256 81.5204 208.799 81.7644C208.799 85.0617 206.471 86.4267 203.603 84.7649C202.093 83.7757 200.837 82.4446 199.938 80.8795C199.038 79.3144 198.52 77.5593 198.426 75.7567H198.4Z" fill="#FFCF50"/>
<path d="M188.916 77.7349C189.035 84.8044 199.771 105.188 199.771 105.188C199.771 105.188 210.032 96.4702 209.92 89.4008V87.7917C209.801 80.7223 205.007 72.3735 199.204 69.1553C193.401 65.9372 188.798 69.0498 188.916 76.1259V77.7349ZM194.126 78.2493C194.073 74.952 196.381 73.5474 199.276 75.1564C200.807 76.1184 202.088 77.4277 203.018 78.978C203.947 80.5284 204.498 82.276 204.625 84.079C204.684 87.3763 202.376 88.7809 199.474 87.1718C197.946 86.2079 196.665 84.8981 195.736 83.3482C194.807 81.7983 194.256 80.0517 194.126 78.2493Z" fill="#FFCF50"/>
<path opacity="0.1" d="M188.916 77.7349C189.035 84.8044 199.771 105.188 199.771 105.188C199.771 105.188 210.032 96.4702 209.92 89.4008V87.7917C209.801 80.7223 205.007 72.3735 199.204 69.1553C193.401 65.9372 188.798 69.0498 188.916 76.1259V77.7349ZM194.126 78.2493C194.073 74.952 196.381 73.5474 199.276 75.1564C200.807 76.1184 202.088 77.4277 203.018 78.978C203.947 80.5284 204.498 82.276 204.625 84.079C204.684 87.3763 202.376 88.7809 199.474 87.1718C197.946 86.2079 196.665 84.8981 195.736 83.3482C194.807 81.7983 194.256 80.0517 194.126 78.2493Z" fill="black"/>
<path d="M88.3413 172.018C95.0084 175.856 110.638 173.067 123.253 165.78L157.908 145.778C170.523 138.491 175.337 129.483 168.657 125.652C161.977 121.82 146.334 124.623 133.706 131.903L99.1169 151.878C86.508 159.159 81.6807 168.2 88.3413 172.018Z" fill="#F0F0F0"/>
<path d="M189.239 4.33712H189.272L194.976 1.03981H195.022C198.616 -0.780301 203.417 -0.279106 208.587 3.08415C218.98 9.77108 226.914 25.2025 226.314 37.541C226.01 43.6938 223.676 47.9143 220.069 49.774H220.036L214.325 53.0713H214.285C210.691 54.898 205.884 54.3902 200.707 51.0336C190.32 44.34 182.387 28.9152 182.987 16.5767C183.304 10.4174 185.671 6.1968 189.239 4.33712Z" fill="#37474F"/>
<path d="M214.615 52.8999L220.056 49.7345H220.095C223.67 47.8683 226.031 43.6477 226.334 37.5015C226.598 32.0016 225.167 25.8884 222.582 20.2104L216.871 23.5078C219.462 29.1857 220.893 35.2989 220.623 40.8054C220.339 46.8065 218.071 50.9809 214.615 52.8999Z" fill="#263238"/>
<path d="M200.734 51.0269C190.348 44.3334 182.414 28.9086 183.014 16.57C183.614 4.23153 192.537 -0.351724 202.904 6.33521C213.27 13.0221 221.23 28.4535 220.63 40.7921C220.03 53.1306 211.121 57.7138 200.734 51.0269Z" fill="#455A64"/>
<path d="M209.438 50.1565C215.565 50.4533 216.56 43.5619 216.692 40.5943C217.22 29.7132 209.926 15.5348 200.766 9.63265C198.815 8.26551 196.543 7.42508 194.172 7.19264C188.052 6.89588 187.056 13.7873 186.918 16.7548C186.39 27.6359 193.677 41.8144 202.844 47.7495C204.795 49.1166 207.067 49.9571 209.438 50.1895V50.1565Z" fill="#FAFAFA"/>
<path d="M200.621 30.7221C200.694 30.7223 200.765 30.7089 200.832 30.6826C200.97 30.6379 201.089 30.549 201.171 30.4299C201.254 30.3107 201.294 30.1677 201.287 30.0231V14.3081C201.287 14.1332 201.218 13.9655 201.094 13.8418C200.971 13.7182 200.803 13.6487 200.628 13.6487C200.453 13.6487 200.285 13.7182 200.162 13.8418C200.038 13.9655 199.968 14.1332 199.968 14.3081V28.1107L192.629 18.6804C192.52 18.5404 192.361 18.4493 192.185 18.4271C192.009 18.4048 191.832 18.4532 191.692 18.5617C191.552 18.6701 191.461 18.8297 191.439 19.0053C191.417 19.1809 191.465 19.3582 191.573 19.4981L200.114 30.4649C200.174 30.543 200.25 30.6066 200.338 30.6511C200.426 30.6957 200.523 30.7199 200.621 30.7221Z" fill="#37474F"/>
<path d="M204.407 42.3484C204.437 42.3545 204.469 42.3545 204.499 42.3484C204.569 42.327 204.628 42.2793 204.664 42.2154C204.699 42.1515 204.709 42.0763 204.691 42.0055L200.991 29.5483C200.97 29.4775 200.922 29.4179 200.857 29.3826C200.792 29.3474 200.716 29.3394 200.645 29.3604C200.574 29.3813 200.514 29.4296 200.479 29.4945C200.444 29.5595 200.436 29.6357 200.457 29.7066L204.15 42.1638C204.169 42.2172 204.203 42.2635 204.249 42.2965C204.295 42.3295 204.35 42.3476 204.407 42.3484Z" fill="#0061F6"/>
<path d="M200.831 26.904C199.605 26.1192 198.556 26.66 198.49 28.1108C198.494 28.9022 198.685 29.6814 199.047 30.385C199.409 31.0886 199.932 31.6968 200.574 32.1599C201.794 32.9513 202.843 32.4105 202.915 30.9597C202.91 30.1677 202.718 29.3881 202.356 28.6837C201.994 27.9793 201.472 27.3697 200.831 26.904Z" fill="#0061F6"/>
<path d="M93.1032 168.16L101.135 163.518L98.458 161.975L90.4258 166.611L93.1032 168.16Z" fill="#0061F6"/>
<path d="M109.174 158.882L117.212 154.239L114.528 152.696L106.496 157.332L109.174 158.882Z" fill="#0061F6"/>
<path d="M105.871 156.989C105.871 160.867 103.154 165.562 99.797 167.54C98.0099 168.576 96.4008 168.609 95.2929 167.831C94.8462 167.48 94.4794 167.038 94.2167 166.534C93.9541 166.03 93.8016 165.476 93.7695 164.909C93.9951 164.804 94.2152 164.687 94.429 164.56C97.7857 162.627 100.503 157.912 100.503 154.008C100.506 153.719 100.488 153.431 100.45 153.144C100.953 152.878 101.506 152.72 102.074 152.679C102.641 152.638 103.211 152.716 103.747 152.907C105.066 153.461 105.871 154.892 105.871 156.989Z" fill="#263238"/>
<path d="M106.417 149.023L106.304 148.957C104.616 148.06 102.348 148.225 99.7955 149.689C94.6187 152.676 90.418 159.944 90.418 165.925C90.418 168.932 91.4797 171.036 93.1943 172.012C94.9089 172.988 97.2236 172.823 99.7889 171.352C104.966 168.365 109.16 161.091 109.16 155.11C109.166 152.103 108.125 149.999 106.417 149.023ZM99.8219 167.527C98.0282 168.563 96.4191 168.596 95.3112 167.811C94.3352 167.152 93.7417 165.833 93.7417 164.019C93.7417 160.148 96.4652 155.446 99.8219 153.468C101.352 152.584 102.743 152.432 103.779 152.887C105.058 153.435 105.863 154.866 105.863 156.976C105.869 160.88 103.152 165.595 99.7955 167.541L99.8219 167.527Z" fill="#37474F"/>
<path d="M104.09 153.065L104.018 153.026C102.923 152.439 101.439 152.551 99.797 153.494C96.4404 155.433 93.7168 160.148 93.7168 164.046C93.7168 166.024 94.3763 167.343 95.5171 168.002C96.658 168.662 98.155 168.53 99.797 167.567C103.154 165.628 105.871 160.913 105.871 157.016C105.871 155.064 105.191 153.692 104.09 153.065ZM99.797 166.156C98.3594 166.987 97.0669 167.013 96.17 166.38C95.3918 165.833 94.9104 164.784 94.9104 163.333C95.0028 161.638 95.4934 159.989 96.3424 158.519C97.1914 157.049 98.375 155.8 99.797 154.872C100.259 154.55 100.79 154.34 101.347 154.258C101.905 154.177 102.474 154.227 103.009 154.404C104.037 154.846 104.684 155.993 104.684 157.701C104.592 159.396 104.101 161.044 103.252 162.514C102.403 163.983 101.219 165.23 99.797 166.156Z" fill="#0061F6"/>
<path d="M125.246 149.597L133.285 144.961L130.607 143.411L122.568 148.054L125.246 149.597Z" fill="#0061F6"/>
<path d="M141.323 140.318L149.355 135.682L146.678 134.132L138.639 138.775L141.323 140.318Z" fill="#0061F6"/>
<path d="M157.393 131.039L165.425 126.403L162.748 124.854L154.709 129.496L157.393 131.039Z" fill="#0061F6"/>
<path d="M117.397 87.8909C117.481 87.7787 117.599 87.6962 117.733 87.6553C117.867 87.6145 118.01 87.6174 118.143 87.6637C118.275 87.71 118.389 87.7973 118.468 87.9129C118.548 88.0284 118.588 88.1663 118.584 88.3064C118.636 88.6817 118.597 89.064 118.472 89.4217C118.347 89.7794 118.139 90.1023 117.865 90.3639C117.338 90.8189 116.803 90.6343 116.678 89.9484C116.627 89.5731 116.666 89.191 116.791 88.8334C116.915 88.4758 117.123 88.1528 117.397 87.8909Z" fill="#0061F6"/>
<path d="M123.582 90.8055L118.208 87.6995L117.027 90.5417L122.422 93.6544L123.582 90.8055Z" fill="#0061F6"/>
<path d="M122.759 90.9837C123.286 90.5353 123.814 90.7199 123.946 91.4058C123.994 91.7806 123.954 92.1615 123.828 92.5178C123.702 92.8741 123.494 93.1958 123.22 93.4567C122.693 93.9117 122.159 93.7271 122.033 93.0412C121.985 92.6654 122.026 92.2836 122.152 91.9263C122.278 91.5691 122.486 91.2462 122.759 90.9837Z" fill="#0061F6"/>
<path d="M164.068 116.993C164.068 117.125 164.068 117.243 164.068 117.375C164.068 117.639 164.068 117.909 164.068 118.18C162.999 117.725 161.608 117.876 160.078 118.76C156.721 120.699 153.998 125.414 153.998 129.311C153.998 131.118 154.591 132.424 155.567 133.103C155.293 133.298 155.009 133.479 154.717 133.644L154.407 133.802L153.477 137.304L148.096 134.304C146.394 133.321 145.346 131.224 145.346 128.23C145.346 122.249 149.54 114.981 154.717 111.987C157.275 110.51 159.59 110.359 161.311 111.328L166.587 114.282L166.699 114.348L164.068 116.993Z" fill="#455A64"/>
<path d="M166.692 114.289L166.58 114.223C164.892 113.326 162.623 113.491 160.071 114.955C154.894 117.942 150.693 125.21 150.693 131.191C150.693 134.198 151.755 136.302 153.47 137.278C155.184 138.254 157.499 138.089 160.064 136.618C165.241 133.631 169.435 126.357 169.435 120.376C169.455 117.369 168.393 115.265 166.692 114.289ZM160.097 132.794C158.304 133.829 156.694 133.862 155.587 133.077C154.611 132.418 154.017 131.099 154.017 129.285C154.017 125.414 156.741 120.712 160.097 118.734C161.627 117.85 163.019 117.698 164.087 118.153C165.366 118.701 166.171 120.132 166.171 122.242C166.158 126.146 163.428 130.861 160.071 132.794H160.097Z" fill="#37474F"/>
<path d="M166.158 122.269C166.158 126.146 163.441 130.842 160.084 132.82C158.297 133.855 156.688 133.888 155.58 133.11C155.133 132.759 154.766 132.317 154.504 131.813C154.241 131.31 154.089 130.756 154.057 130.189C154.282 130.083 154.502 129.967 154.716 129.839C158.073 127.907 160.79 123.192 160.79 119.288C160.793 118.999 160.775 118.71 160.737 118.424C161.24 118.158 161.793 117.999 162.361 117.958C162.928 117.917 163.498 117.995 164.034 118.187C165.34 118.74 166.158 120.158 166.158 122.269Z" fill="#263238"/>
<path d="M164.364 118.331L164.291 118.285C163.196 117.705 161.706 117.811 160.07 118.76C156.714 120.699 153.99 125.408 153.99 129.312C153.99 131.29 154.65 132.609 155.791 133.268C156.931 133.928 158.428 133.789 160.07 132.826C163.427 130.894 166.144 126.179 166.144 122.275C166.157 120.33 165.498 118.965 164.364 118.331ZM160.07 131.415C158.626 132.253 157.334 132.279 156.443 131.646C155.659 131.099 155.184 130.05 155.184 128.599C155.276 126.904 155.767 125.255 156.616 123.785C157.465 122.315 158.648 121.066 160.07 120.138C161.297 119.426 162.418 119.301 163.275 119.67C164.304 120.112 164.95 121.259 164.95 122.968C164.859 124.66 164.369 126.307 163.521 127.775C162.673 129.243 161.491 130.49 160.07 131.415Z" fill="#0061F6"/>
<path d="M154.71 124.24L169.877 115.483C171.638 114.461 165.921 108.492 161.667 108.09C159.325 107.807 156.95 108.032 154.703 108.75C154.703 108.75 157.941 112.898 157.387 115.252C156.833 117.606 154.71 124.24 154.71 124.24Z" fill="#0061F6"/>
<path d="M133.284 99.4907C133.284 99.4907 155.27 110.583 156.22 111.249C157.17 111.915 156.22 119.65 154.71 124.24C153.2 128.83 150.878 135.886 149.949 137.865C149.019 139.843 147.805 140.582 145.576 141.868L129.749 151.014L108.323 153.626L99.8164 149.01L102.032 135.088C102.032 135.088 124.803 122.974 127.923 121.174C131.042 119.373 140.268 110.926 133.284 99.4907Z" fill="#0061F6"/>
<path opacity="0.2" d="M133.284 99.4907C133.284 99.4907 155.27 110.583 156.22 111.249C157.17 111.915 156.22 119.65 154.71 124.24C153.2 128.83 150.878 135.886 149.949 137.865C149.019 139.843 147.805 140.582 145.576 141.868L129.749 151.014L108.323 153.626L99.8164 149.01L102.032 135.088C102.032 135.088 124.803 122.974 127.923 121.174C131.042 119.373 140.268 110.926 133.284 99.4907Z" fill="black"/>
<path d="M156.643 121.596C158.621 116.281 160.098 111.875 159.848 108.901C159.544 105.373 158.225 102.491 152.409 101.04C146.592 99.5896 138.461 99.616 138.461 99.616L135.988 101.047C135.988 101.047 152.712 110.741 154.611 111.796C155.772 112.456 157.012 115.364 154.737 124.247L155.126 124.471C155.317 124.59 156.01 123.304 156.643 121.596Z" fill="#0061F6"/>
<path opacity="0.3" d="M156.643 121.596C158.621 116.281 160.098 111.875 159.848 108.901C159.544 105.373 158.225 102.491 152.409 101.04C146.592 99.5896 138.461 99.616 138.461 99.616L135.988 101.047C135.988 101.047 152.712 110.741 154.611 111.796C155.772 112.456 157.012 115.364 154.737 124.247L155.126 124.471C155.317 124.59 156.01 123.304 156.643 121.596Z" fill="white"/>
<path d="M143.974 105.676L146.678 104.133C146.678 104.133 146.52 94.7623 142.576 92.4871C138.633 90.212 125.246 91.7617 125.246 91.7617L122.568 93.3049L143.974 105.676Z" fill="#0061F6"/>
<path d="M135.203 94.6304C133.917 95.3756 133.917 96.5758 135.203 97.3144C135.924 97.6815 136.721 97.8729 137.531 97.8729C138.34 97.8729 139.137 97.6815 139.859 97.3144C141.138 96.5758 141.138 95.369 139.859 94.6304C139.137 94.2663 138.339 94.0767 137.531 94.0767C136.722 94.0767 135.925 94.2663 135.203 94.6304Z" fill="#F0F0F0"/>
<path d="M139.318 99.1082C138.415 99.6357 138.415 100.486 139.318 101.007C139.829 101.268 140.394 101.405 140.967 101.405C141.54 101.405 142.105 101.268 142.616 101.007C143.526 100.486 143.526 99.6357 142.616 99.1082C142.104 98.8502 141.54 98.7158 140.967 98.7158C140.394 98.7158 139.83 98.8502 139.318 99.1082Z" fill="#F0F0F0"/>
<path d="M128.958 93.437C128.048 93.9579 128.048 94.8086 128.958 95.3362C129.469 95.5942 130.034 95.7285 130.607 95.7285C131.179 95.7285 131.744 95.5942 132.255 95.3362C133.165 94.8086 133.165 93.9579 132.255 93.437C131.745 93.1759 131.18 93.0398 130.607 93.0398C130.033 93.0398 129.468 93.1759 128.958 93.437Z" fill="#F0F0F0"/>
<path d="M144.395 102.96C144.923 102.505 145.451 102.689 145.582 103.375C145.631 103.751 145.591 104.133 145.465 104.49C145.339 104.848 145.131 105.17 144.857 105.433C144.773 105.545 144.655 105.627 144.521 105.668C144.387 105.709 144.244 105.706 144.111 105.66C143.979 105.613 143.865 105.526 143.785 105.411C143.706 105.295 143.666 105.157 143.67 105.017C143.619 104.641 143.659 104.259 143.785 103.901C143.911 103.543 144.12 103.221 144.395 102.96Z" fill="#0061F6"/>
<path d="M150.549 105.874L145.168 102.768L143.994 105.611L149.382 108.717L150.549 105.874Z" fill="#0061F6"/>
<path d="M149.718 106.052C149.802 105.94 149.92 105.858 150.054 105.817C150.188 105.776 150.332 105.779 150.464 105.825C150.596 105.871 150.711 105.959 150.79 106.074C150.869 106.19 150.91 106.328 150.905 106.468C150.956 106.844 150.916 107.226 150.79 107.584C150.664 107.941 150.455 108.264 150.18 108.525C149.652 108.98 149.125 108.789 148.993 108.11C148.944 107.734 148.984 107.352 149.11 106.994C149.236 106.637 149.444 106.314 149.718 106.052Z" fill="#0061F6"/>
<path d="M149.718 106.052C149.802 105.94 149.92 105.858 150.054 105.817C150.188 105.776 150.332 105.779 150.464 105.825C150.596 105.871 150.711 105.959 150.79 106.074C150.869 106.19 150.91 106.328 150.905 106.468C150.956 106.844 150.916 107.226 150.79 107.584C150.664 107.941 150.455 108.264 150.18 108.525C149.652 108.98 149.125 108.789 148.993 108.11C148.944 107.734 148.984 107.352 149.11 106.994C149.236 106.637 149.444 106.314 149.718 106.052Z" fill="black"/>
<path d="M103.793 151.713C103.793 151.845 103.793 151.964 103.793 152.096C103.793 152.36 103.793 152.63 103.793 152.9C102.724 152.445 101.333 152.597 99.8359 153.481C96.4792 155.42 93.7557 160.135 93.7557 164.032C93.7557 165.839 94.3492 167.145 95.3252 167.824C95.0511 168.019 94.7672 168.199 94.4745 168.365L94.1645 168.523L93.2347 172.025L87.8535 169.024C86.1521 168.042 85.1035 165.945 85.1035 162.951C85.1035 156.969 89.2977 149.702 94.4745 146.708C97.0332 145.231 99.3479 145.079 101.069 146.049L106.345 149.003L106.457 149.069L103.793 151.713Z" fill="#455A64"/>
<path d="M87.7407 141.248L83.7246 155.169L91.7634 159.812L95.9246 145.976L87.7407 141.248Z" fill="#0061F6"/>
<path opacity="0.2" d="M87.7407 141.248L83.7246 155.169L91.7634 159.812L95.9246 145.976L87.7407 141.248Z" fill="black"/>
<path d="M87.7422 141.248C87.7422 141.248 92.2991 145.119 95.9261 145.976C100.687 147.13 108.258 147.256 110.942 147.44C115.044 147.724 118.143 147.717 119.594 147.196C121.474 146.537 126.525 143.602 127.923 142.798C130.601 141.254 131.741 135.181 124.362 133.519C119.372 132.485 114.29 131.966 109.194 131.969L87.7422 141.248Z" fill="#0061F6"/>
<path d="M133.184 139.467C132.955 140.041 132.8 140.641 132.723 141.254C132.51 141.891 132.46 142.571 132.578 143.233C133.08 144.064 133.871 144.681 134.8 144.967C135.469 145.116 136.161 145.125 136.834 144.995C137.507 144.864 138.146 144.597 138.711 144.209C140.076 143.391 141.104 142.402 143.043 141.848C144.429 141.555 145.734 140.963 146.868 140.113C147.943 139.25 149.381 136.862 147.323 136.308C145.266 135.754 140.794 137.706 136.719 137.884L133.184 139.467Z" fill="#37474F"/>
<path d="M133.186 136.922V139.968C133.31 140.311 133.527 140.612 133.812 140.839C134.097 141.066 134.44 141.21 134.801 141.254C135.132 141.303 135.47 141.267 135.784 141.149C136.278 140.96 136.706 140.631 137.015 140.202C137.325 139.773 137.502 139.263 137.525 138.735L137.644 136.922H133.186Z" fill="#FFA8A7"/>
<path d="M138.987 118.081C138.987 121.873 137.919 138.267 137.919 138.267C137.919 138.267 136.369 140.246 133 138.267L131.865 119.947L138.987 118.081Z" fill="#37474F"/>
<path d="M121.314 134.238L131.865 128.158C132.298 127.931 132.66 127.59 132.912 127.172C133.165 126.754 133.298 126.275 133.298 125.787C133.298 125.298 133.165 124.819 132.912 124.402C132.66 123.984 132.298 123.643 131.865 123.416L124.004 118.879C123.562 118.655 123.073 118.538 122.577 118.538C122.081 118.538 121.591 118.655 121.149 118.879L110.598 124.959C110.167 125.188 109.807 125.529 109.556 125.947C109.305 126.364 109.172 126.843 109.172 127.33C109.172 127.817 109.305 128.295 109.556 128.713C109.807 129.131 110.167 129.472 110.598 129.701L118.458 134.238C118.901 134.462 119.39 134.579 119.886 134.579C120.382 134.579 120.871 134.462 121.314 134.238Z" fill="#0061F6"/>
<path d="M121.314 134.238L131.865 128.158C132.298 127.931 132.66 127.59 132.912 127.172C133.165 126.754 133.298 126.275 133.298 125.787C133.298 125.298 133.165 124.819 132.912 124.402C132.66 123.984 132.298 123.643 131.865 123.416L124.004 118.879C123.562 118.655 123.073 118.538 122.577 118.538C122.081 118.538 121.591 118.655 121.149 118.879L110.598 124.959C110.167 125.188 109.807 125.529 109.556 125.947C109.305 126.364 109.172 126.843 109.172 127.33C109.172 127.817 109.305 128.295 109.556 128.713C109.807 129.131 110.167 129.472 110.598 129.701L118.458 134.238C118.901 134.462 119.39 134.579 119.886 134.579C120.382 134.579 120.871 134.462 121.314 134.238Z" fill="white"/>
<path d="M110.599 126.608L118.459 131.145C118.902 131.369 119.391 131.486 119.887 131.486C120.383 131.486 120.872 131.369 121.315 131.145L131.866 125.065C132.038 125.006 132.188 124.895 132.294 124.747C132.4 124.6 132.457 124.422 132.457 124.24C132.457 124.058 132.4 123.881 132.294 123.733C132.188 123.585 132.038 123.474 131.866 123.416L124.005 118.879C123.563 118.655 123.074 118.538 122.578 118.538C122.082 118.538 121.593 118.655 121.15 118.879L110.599 124.959C110.426 125.018 110.277 125.129 110.171 125.276C110.065 125.424 110.008 125.602 110.008 125.783C110.008 125.965 110.065 126.143 110.171 126.291C110.277 126.438 110.426 126.549 110.599 126.608Z" fill="#0061F6"/>
<path d="M117.029 86.2488L115.69 91.7685L109.939 92.118L111.179 84.4683L117.029 86.2488Z" fill="#FFA8A7"/>
<path d="M122.633 82.0942C122.633 82.0942 123.293 84.4287 123.023 84.5606C122.607 84.624 122.185 84.624 121.77 84.5606L122.633 82.0942Z" fill="#F28F8F"/>
<path d="M121.533 74.6423C122.456 75.7305 123.3 77.5176 122.647 81.8964C121.935 86.6841 121.051 87.238 120.339 87.6997C119.409 88.3064 115.69 87.9832 114.641 87.2183C113.382 86.3016 111.436 83.3934 110.975 80.5247C110.434 77.1549 111.562 73.4157 114.041 72.7761C117.53 71.8726 120.748 73.7191 121.533 74.6423Z" fill="#FFA8A7"/>
<path d="M110.599 86.0179C111.489 86.9412 113.315 87.1918 114.463 87.4028C115.61 87.6138 119.139 87.8446 120.18 85.3321C121.222 82.8195 120.51 81.0126 121.79 80.4059C123.069 79.7992 124.348 79.4035 124.685 79.087C125.021 78.7704 125.028 74.6356 121.592 72.4924C118.156 70.3491 112.893 69.8545 109.431 74.2004C106.807 77.557 107.882 83.1822 110.599 86.0179Z" fill="#455A64"/>
<path d="M114.061 87.4359C114.951 87.515 117.767 87.0732 118.617 85.9125C119.468 84.7519 119.811 82.6746 119.936 81.5865C119.948 81.1579 120.105 80.7461 120.382 80.4188C120.659 80.0916 121.039 79.8684 121.46 79.7861C122.31 79.5158 124.19 78.5925 124.19 78.5925V78.0781C124.796 78.04 125.404 78.04 126.01 78.0781C126.406 78.1507 126.188 78.7376 125.186 79.2454C124.183 79.7532 121.433 80.7358 121.011 81.0721C120.589 81.4084 120.391 82.8263 120.055 84.3364C119.719 85.8466 118.677 88.1019 114.061 87.4359Z" fill="#37474F"/>
<path d="M121.974 93.6808L125.272 91.7882C125.588 90.832 125.08 90.3506 124.184 90.4099C123.287 90.4693 123.564 89.5988 123.016 89.3548C122.297 89.0251 121.889 89.2097 121.565 89.058C121.242 88.9064 121.104 88.5239 120.682 88.4777C118.796 88.2996 117.51 90.9902 117.51 90.9902L121.974 93.6808Z" fill="#F28F8F"/>
<path d="M99.5918 117.896C99.5918 117.896 114.159 110.675 116.698 109.508C119.237 108.341 123.22 106.646 125.337 106.646C126.164 106.714 126.939 107.079 127.519 107.672C128.1 108.266 128.446 109.049 128.496 109.877C128.523 111.149 128.451 112.422 128.278 113.682C124.276 114.995 120.186 116.025 116.039 116.762C109.978 117.817 99.5918 117.896 99.5918 117.896Z" fill="#37474F"/>
<path d="M101.174 113.722C101.174 116.716 100.891 119.828 102.137 122.018C103.383 124.207 110.136 129.272 116.493 128.21C120.648 127.511 132.98 121.833 132.98 121.833C132.98 121.833 138.961 119.637 138.988 118.074C139.027 115.773 138.869 112.528 133.653 112.667C128.898 112.792 114.871 115.72 114.871 115.72L101.174 113.722Z" fill="#455A64"/>
<path d="M105.244 90.0011C107.5 87.6468 109.023 87.449 110.105 87.7391C112.59 88.4505 114.996 89.4139 117.286 90.6144C117.286 90.6144 116.416 99.0423 120.537 101.469V114.606C120.537 114.606 120.412 116.03 118.618 117.448C117.036 118.694 113.455 119.954 109.181 119.598C104.104 119.176 101.176 113.722 101.176 113.722C101.176 113.722 101.044 102.979 101.762 98.7126C102.607 93.7336 104.466 90.8188 105.244 90.0011Z" fill="#455A64"/>
<path d="M120.536 102.109C120.536 102.109 118.044 100.13 117.285 97.5586C117.285 97.5586 117.582 101.594 120.536 103.639V102.109Z" fill="#37474F"/>
<path d="M143.612 108.308C144.796 108.356 145.96 107.995 146.909 107.285C146.909 107.285 148.057 105.056 149.468 105.248C149.468 105.248 149.718 104.298 149.138 103.988C148.558 103.678 148.307 103.764 148.07 103.434C147.832 103.104 147.806 102.491 146.751 102.491C146.316 102.491 146.375 102.181 145.32 102.056C144.265 101.931 143.223 104.364 142.451 104.364L143.612 108.308Z" fill="#FFA8A7"/>
<path d="M117.286 90.6143C120.906 91.1748 122.218 92.2497 123.537 93.4697C124.856 94.6897 132.928 102.788 132.928 102.788L142.701 104.193C143.215 104.608 143.592 105.169 143.783 105.802C144.179 106.949 143.822 108.202 143.447 108.499C143.447 108.499 133.752 109.079 131.847 108.716C129.941 108.354 120.504 102.089 120.504 102.089C119.602 101.409 118.845 100.555 118.279 99.5771C117.713 98.5996 117.348 97.5185 117.207 96.3977C116.593 92.4212 117.286 90.6143 117.286 90.6143Z" fill="#455A64"/>
<path d="M108.594 125.447L93.6172 143.727C93.4509 143.748 93.2836 143.759 93.116 143.76C92.5221 143.77 91.9352 143.632 91.408 143.358L78.7595 136.051L77.9022 135.557C77.434 135.286 77.0449 134.178 77.0449 133.084V130.004C77.0444 126.84 77.8766 123.733 79.4579 120.992C81.0391 118.252 83.3138 115.977 86.0532 114.395L101.155 105.677L117.226 114.955L108.594 125.447Z" fill="#0061F6"/>
<g opacity="0.1">
<path d="M108.594 125.447L93.6172 143.727C93.4509 143.748 93.2836 143.759 93.116 143.76C92.5221 143.77 91.9352 143.632 91.408 143.358L78.7595 136.051L77.9022 135.557C77.434 135.286 77.0449 134.178 77.0449 133.084V130.004C77.0444 126.84 77.8766 123.733 79.4579 120.992C81.0391 118.252 83.3138 115.977 86.0532 114.395L101.155 105.677L117.226 114.955L108.594 125.447Z" fill="black"/>
</g>
<path d="M103.431 131.752L117.207 114.962L101.136 105.683L86.0407 114.395C84.0881 115.525 82.3655 117.013 80.9629 118.78L103.431 131.752Z" fill="#0061F6"/>
<path d="M117.206 128.441C117.206 129.536 116.823 130.644 116.348 130.914L115.491 131.409L94.8103 143.351C94.434 143.554 94.0219 143.682 93.5969 143.727C93.4306 143.748 93.2633 143.759 93.0957 143.76V139.283C93.0952 136.118 93.9281 133.01 95.5106 130.269C97.0931 127.529 99.3695 125.254 102.111 123.673L103.819 122.691L117.206 114.955V128.441Z" fill="#0061F6"/>
<g opacity="0.2">
<path d="M117.206 128.441C117.206 129.536 116.823 130.644 116.348 130.914L115.491 131.409L94.8103 143.351C94.434 143.554 94.0219 143.682 93.5969 143.727C93.4306 143.748 93.2633 143.759 93.0957 143.76V139.283C93.0952 136.118 93.9281 133.01 95.5106 130.269C97.0931 127.529 99.3695 125.254 102.111 123.673L103.819 122.691L117.206 114.955V128.441Z" fill="black"/>
</g>
<path d="M121.645 151.06L129.736 151.034L141.316 144.347L129.974 152.544L121.434 152.663L121.645 151.06Z" fill="#E0E0E0"/>
<path d="M101.999 162.575C101.999 162.575 116.586 157.075 117.826 156.429C119.281 155.537 120.661 154.529 121.954 153.415C122.218 153.066 122.342 152.631 122.301 152.196C122.261 151.76 122.06 151.355 121.736 151.061C121.736 151.061 115.801 150.79 114.278 151.258C113.427 151.516 99.6973 155.921 99.6973 155.921L101.999 162.575Z" fill="#E0E0E0"/>
<path d="M101.346 156.429C100.14 155.393 98.9261 155.822 98.6294 157.378C98.516 158.237 98.6069 159.11 98.8945 159.927C99.1821 160.744 99.6584 161.482 100.285 162.08C101.491 163.115 102.705 162.693 103.002 161.131C103.114 160.272 103.023 159.399 102.736 158.582C102.448 157.765 101.972 157.027 101.346 156.429Z" fill="#455A64"/>
</svg>
