<svg width="80" height="80" viewBox="0 0 80 80" fill="none" xmlns="http://www.w3.org/2000/svg">
<g clip-path="url(#clip0_368_3715)">
<path d="M51.1113 8.88892H15.5558C14.377 8.88892 13.2466 9.35717 12.4131 10.1907C11.5796 11.0242 11.1113 12.1546 11.1113 13.3334V66.6667C11.1113 67.8454 11.5796 68.9759 12.4131 69.8094C13.2466 70.6429 14.377 71.1111 15.5558 71.1111H51.1113C52.2901 71.1111 53.4205 70.6429 54.254 69.8094C55.0875 68.9759 55.5558 67.8454 55.5558 66.6667V53.3334H34.7335C34.1442 53.3334 33.5789 53.0992 33.1622 52.6825C32.7455 52.2657 32.5113 51.7005 32.5113 51.1111C32.5113 50.5218 32.7455 49.9565 33.1622 49.5398C33.5789 49.123 34.1442 48.8889 34.7335 48.8889H55.5558V13.3334C55.5558 12.1546 55.0875 11.0242 54.254 10.1907C53.4205 9.35717 52.2901 8.88892 51.1113 8.88892Z" fill="#0061F6"/>
<path d="M62.5769 38.4001C62.1518 38.036 61.605 37.8458 61.0457 37.8674C60.4864 37.889 59.9559 38.1208 59.5601 38.5166C59.1643 38.9124 58.9325 39.4429 58.9109 40.0022C58.8893 40.5615 59.0795 41.1083 59.4436 41.5334L66.9547 48.889H55.5547V53.3334H66.9547L59.4436 61.0223C59.211 61.2215 59.022 61.4667 58.8886 61.7424C58.7552 62.0181 58.6803 62.3184 58.6685 62.6244C58.6566 62.9304 58.7082 63.2356 58.8199 63.5208C58.9317 63.806 59.1011 64.065 59.3177 64.2815C59.5343 64.4981 59.7932 64.6675 60.0784 64.7793C60.3636 64.891 60.6688 64.9426 60.9748 64.9307C61.2808 64.9189 61.5811 64.844 61.8568 64.7106C62.1325 64.5772 62.3777 64.3883 62.5769 64.1556L75.5547 51.2667L62.5769 38.4001Z" fill="#0061F6"/>
</g>
<defs>
<clipPath id="clip0_368_3715">
<rect width="80" height="80" fill="white"/>
</clipPath>
</defs>
</svg>
