<svg width="24" height="25" viewBox="0 0 24 25" fill="none" xmlns="http://www.w3.org/2000/svg">
<g clip-path="url(#clip0_449_1611)">
<path d="M10.9792 2.0835C6.09375 2.0835 2.125 6.05225 2.125 10.9377C2.125 15.8231 6.09375 19.7918 10.9792 19.7918H11.5V22.9168C16.5625 20.4793 19.8333 15.6252 19.8333 10.9377C19.8333 6.05225 15.8646 2.0835 10.9792 2.0835ZM12.0208 17.1877H9.9375V15.1043H12.0208V17.1877ZM12.0208 13.5418H9.9375C9.9375 10.1564 13.0625 10.4168 13.0625 8.3335C13.0625 7.18766 12.125 6.25016 10.9792 6.25016C9.83333 6.25016 8.89583 7.18766 8.89583 8.3335H6.8125C6.8125 6.03141 8.67708 4.16683 10.9792 4.16683C13.2812 4.16683 15.1458 6.03141 15.1458 8.3335C15.1458 10.9377 12.0208 11.1981 12.0208 13.5418Z" fill="#0061F6"/>
</g>
<defs>
<clipPath id="clip0_449_1611">
<rect width="25" height="25" fill="white" transform="translate(-1)"/>
</clipPath>
</defs>
</svg>
