<svg width="288" height="259" viewBox="0 0 288 259" fill="none" xmlns="http://www.w3.org/2000/svg">
<path d="M42.5314 236.082C98.57 265.384 189.432 265.384 245.471 236.082C301.51 206.78 301.51 159.337 245.471 130.061C189.432 100.785 98.57 100.759 42.5314 130.061C-13.5072 159.363 -13.5137 206.813 42.5314 236.082Z" fill="#F5F5F5"/>
<path d="M210.14 209.508C224.845 209.508 236.765 202.625 236.765 194.135C236.765 185.644 224.845 178.761 210.14 178.761C195.434 178.761 183.514 185.644 183.514 194.135C183.514 202.625 195.434 209.508 210.14 209.508Z" fill="#E0E0E0"/>
<path d="M47.9612 186.106C47.564 181.587 43.4812 172.516 38.2785 167.06C33.0757 161.603 25.3334 157.944 20.2544 160.203C15.5205 162.3 16.6079 168.668 22.8981 172.373C29.1883 176.078 38.5259 180.643 41.7817 187.747L48.0263 196.264L47.9612 186.106Z" fill="#0061F6"/>
<path opacity="0.1" d="M47.9612 186.106C47.564 181.587 43.4812 172.516 38.2785 167.06C33.0757 161.603 25.3334 157.944 20.2544 160.203C15.5205 162.3 16.6079 168.668 22.8981 172.373C29.1883 176.078 38.5259 180.643 41.7817 187.747L48.0263 196.264L47.9612 186.106Z" fill="black"/>
<path d="M48.8334 192.26C48.7607 192.262 48.6894 192.239 48.6314 192.195C48.5734 192.151 48.5321 192.089 48.5143 192.019C44.1385 176.86 30.5684 165.419 22.8587 163.296C22.816 163.285 22.7759 163.265 22.7408 163.238C22.7057 163.211 22.6763 163.177 22.6542 163.139C22.6322 163.1 22.6179 163.058 22.6122 163.014C22.6065 162.97 22.6095 162.925 22.621 162.883C22.6326 162.84 22.6524 162.8 22.6795 162.765C22.7065 162.73 22.7402 162.7 22.7786 162.678C22.8169 162.656 22.8593 162.642 22.9032 162.636C22.9472 162.63 22.9918 162.633 23.0345 162.645C30.8875 164.807 44.7115 176.436 49.1459 191.823C49.1589 191.865 49.1634 191.908 49.1593 191.952C49.1551 191.995 49.1423 192.037 49.1217 192.075C49.1011 192.113 49.073 192.147 49.0391 192.174C49.0053 192.201 48.9663 192.222 48.9245 192.234L48.8334 192.26Z" fill="white"/>
<path d="M47.3954 202.333C46.4447 199.859 42.9805 195.939 37.628 192.911C31.7676 189.57 24.5658 188.424 22.6514 185.579C20.3919 182.173 23.1202 178.527 28.883 178.735C34.6457 178.943 45.3442 185.846 47.9749 197.417L47.3954 202.333Z" fill="#0061F6"/>
<path d="M48.2671 199.572C48.2027 199.573 48.1394 199.555 48.0851 199.52C48.0307 199.485 47.9876 199.435 47.9611 199.377C42.1007 186.581 31.591 182.824 26.8701 182.622C26.8265 182.621 26.7836 182.61 26.744 182.592C26.7043 182.574 26.6687 182.548 26.639 182.516C26.6094 182.484 26.5864 182.446 26.5713 182.405C26.5562 182.364 26.5493 182.321 26.551 182.277C26.5518 182.234 26.5615 182.191 26.5795 182.151C26.5975 182.111 26.6235 182.076 26.6559 182.046C26.6882 182.017 26.7262 181.995 26.7676 181.981C26.8089 181.967 26.8527 181.961 26.8962 181.965C32.1054 182.18 42.5239 186.034 48.5667 199.103C48.6005 199.183 48.6025 199.273 48.5722 199.354C48.5419 199.435 48.4817 199.501 48.4039 199.539C48.361 199.559 48.3144 199.57 48.2671 199.572Z" fill="white"/>
<path d="M224.795 180.252C224.698 176.612 225.707 170.517 229.288 164.429C233.124 157.917 238.183 153.555 242.435 154.883C246.394 156.12 245.522 161.492 239.57 167.346C235.39 171.455 231.196 176.664 229.243 182.622L225.896 190.293L224.795 180.252Z" fill="#0061F6"/>
<path d="M224.795 180.252C224.698 176.612 225.707 170.517 229.288 164.429C233.124 157.917 238.183 153.555 242.435 154.883C246.394 156.12 245.522 161.492 239.57 167.346C235.39 171.455 231.196 176.664 229.243 182.622L225.896 190.293L224.795 180.252Z" fill="#0061F6"/>
<g opacity="0.1">
<path d="M224.795 180.252C224.698 176.612 225.707 170.517 229.288 164.429C233.124 157.917 238.183 153.555 242.435 154.883C246.394 156.12 245.522 161.492 239.57 167.346C235.39 171.455 231.196 176.664 229.243 182.622L225.896 190.293L224.795 180.252Z" fill="black"/>
</g>
<path d="M225.459 182.955C225.512 182.95 225.562 182.929 225.602 182.893C225.642 182.858 225.669 182.811 225.68 182.759C228.233 172.38 234.692 161.453 240.715 157.364C240.763 157.322 240.794 157.265 240.802 157.202C240.811 157.14 240.796 157.076 240.761 157.023C240.726 156.971 240.673 156.933 240.612 156.916C240.551 156.9 240.486 156.906 240.429 156.934C234.315 161.108 227.757 172.158 225.179 182.655C225.171 182.687 225.17 182.721 225.175 182.754C225.18 182.787 225.192 182.819 225.21 182.847C225.227 182.876 225.25 182.9 225.277 182.92C225.304 182.939 225.335 182.953 225.368 182.961C225.398 182.965 225.429 182.963 225.459 182.955Z" fill="white"/>
<path d="M224.763 192.018C226.772 193.801 229.216 195.023 231.847 195.561C236.406 196.557 238.528 194.493 238.528 194.493C238.528 194.493 236.979 190.098 234.459 188.737C237.232 189.533 239.85 190.795 242.201 192.468C242.201 192.468 244.988 192.676 246.355 188.483C246.355 188.483 244.851 185.813 239.381 184.1C242.151 183.771 244.96 184.078 247.592 184.999C247.951 185.168 249.832 179.751 250.457 177.237C251.083 174.724 250.054 174.685 248.107 174.04C246.16 173.395 239.42 172.66 238.118 173.675C236.816 174.691 235.956 178.377 235.956 178.377C235.956 178.377 234.895 176.202 235.305 174.333C233.947 173.855 232.475 173.803 231.086 174.183C228.813 174.834 228.891 175.922 228.793 177.543C228.688 179.174 228.815 180.812 229.171 182.407C229.171 182.407 227.713 180.981 227.954 176.072C227.954 176.072 224.789 178.468 223.448 180.63C222.106 182.792 222.08 188.541 224.763 192.018Z" fill="#0061F6"/>
<path d="M224.743 192.279C224.791 192.282 224.839 192.271 224.882 192.248C224.924 192.225 224.96 192.191 224.984 192.149C229.132 184.7 243.385 176.606 248.36 175.942C248.394 175.937 248.426 175.926 248.455 175.909C248.484 175.891 248.509 175.869 248.529 175.842C248.55 175.815 248.564 175.784 248.573 175.752C248.581 175.719 248.583 175.685 248.578 175.652C248.574 175.618 248.563 175.586 248.545 175.557C248.528 175.528 248.506 175.503 248.479 175.483C248.452 175.462 248.421 175.448 248.389 175.439C248.356 175.431 248.322 175.429 248.289 175.434C243.236 176.085 228.754 184.328 224.534 191.895C224.501 191.955 224.493 192.025 224.511 192.091C224.53 192.156 224.573 192.212 224.632 192.247C224.666 192.266 224.704 192.277 224.743 192.279Z" fill="white"/>
<path d="M51.4773 207.321L49.7062 206.298C48.9478 205.804 48.3167 205.138 47.8641 204.354C47.4115 203.57 47.1503 202.69 47.1016 201.786V46.4913C47.1498 45.5863 47.4108 44.7054 47.8633 43.9202C48.3159 43.135 48.9473 42.4677 49.7062 41.9723L121.333 0.623784C122.14 0.213724 123.033 0 123.938 0C124.843 0 125.736 0.213724 126.543 0.623784L128.314 1.6461C129.072 2.14084 129.703 2.8072 130.155 3.59119C130.608 4.37518 130.869 5.25475 130.919 6.15862V161.46C130.869 162.363 130.608 163.243 130.155 164.027C129.703 164.811 129.072 165.477 128.314 165.972L56.6866 207.321C55.8796 207.731 54.9872 207.944 54.082 207.944C53.1768 207.944 52.2843 207.731 51.4773 207.321Z" fill="#37474F"/>
<path d="M57.5787 49.5584L47.8634 43.9519C47.396 44.731 47.1339 45.616 47.1016 46.524V201.786C47.1503 202.69 47.4115 203.57 47.8641 204.354C48.3167 205.138 48.9478 205.804 49.7062 206.298L51.4773 207.321C52.2843 207.731 53.1768 207.945 54.082 207.945C54.9872 207.945 55.8796 207.731 56.6866 207.321L57.5722 206.813L57.5787 49.5584Z" fill="#263238"/>
<path d="M54.082 50.522V205.836C54.082 207.503 55.2476 208.174 56.6867 207.34L128.314 165.992C129.072 165.497 129.703 164.831 130.155 164.047C130.608 163.263 130.869 162.383 130.919 161.479V6.1587C130.919 4.49825 129.753 3.82756 128.314 4.65453L56.6867 46.0095C55.9275 46.5031 55.2958 47.1692 54.8432 47.9534C54.3905 48.7377 54.1297 49.6178 54.082 50.522Z" fill="#455A64"/>
<path d="M59.8116 60.3415L124.927 22.7372C126.158 22.0274 127.161 22.6069 127.161 24.0395V147.922C127.119 148.697 126.895 149.451 126.507 150.123C126.119 150.795 125.577 151.366 124.927 151.79L59.8116 189.388C58.5744 190.104 57.5781 189.525 57.5781 188.086V64.2094C57.6186 63.4341 57.8421 62.6794 58.2303 62.0072C58.6185 61.3349 59.1604 60.7641 59.8116 60.3415Z" fill="#FAFAFA"/>
<g opacity="0.4">
<path d="M92.7341 70.1022C100.034 65.8892 105.953 69.3078 105.953 77.7338C105.953 86.1597 100.034 96.422 92.7341 100.635C85.4346 104.848 79.5156 101.436 79.5156 93.0034C79.5156 84.5709 85.4346 74.3022 92.7341 70.1022Z" fill="#0061F6"/>
<path d="M118.787 115.195C118.787 101.345 109.065 95.1912 97.0709 102.12L89.5696 106.45C77.5753 113.372 67.8535 130.217 67.8535 144.067V147.798L118.787 118.405V115.195Z" fill="#0061F6"/>
</g>
<path d="M92.501 29.3725C93.4647 28.8125 94.2461 29.2683 94.2461 30.3818C94.2138 30.9872 94.0389 31.5765 93.7356 32.1016C93.4323 32.6266 93.0093 33.0726 92.501 33.4031C91.5372 33.9631 90.7559 33.5073 90.7559 32.3938C90.7881 31.7883 90.9631 31.1991 91.2663 30.674C91.5696 30.1489 91.9926 29.703 92.501 29.3725Z" fill="#263238"/>
<path d="M87.4605 38.0847C91.0093 36.1313 97.3385 32.3611 100.835 30.3034C101.428 29.9518 101.91 30.1927 101.91 30.8374C101.884 31.2009 101.773 31.5533 101.585 31.8656C101.397 32.1779 101.138 32.4414 100.829 32.6346L87.4344 40.3703C86.8354 40.7154 86.3535 40.4745 86.3535 39.8233C86.3838 39.4656 86.5003 39.1206 86.6931 38.8178C86.8858 38.515 87.1492 38.2635 87.4605 38.0847Z" fill="#263238"/>
<path d="M84.075 40.0449C84.6155 39.7323 85.0583 39.9863 85.0583 40.6114C85.0391 40.9519 84.9402 41.2832 84.7694 41.5784C84.5986 41.8737 84.3607 42.1246 84.075 42.3109C83.5346 42.6235 83.0918 42.3695 83.0918 41.7444C83.1109 41.4039 83.2099 41.0726 83.3807 40.7774C83.5515 40.4822 83.7894 40.2312 84.075 40.0449Z" fill="#263238"/>
<path d="M92.5 174.58C94.4534 173.467 95.9967 174.372 95.9967 176.599C95.9314 177.811 95.5806 178.991 94.9729 180.042C94.3653 181.094 93.518 181.987 92.5 182.648C90.5465 183.762 89.0098 182.857 89.0098 180.63C89.0754 179.418 89.4256 178.239 90.032 177.188C90.6384 176.137 91.4839 175.244 92.5 174.58Z" fill="#263238"/>
<path d="M151.893 131.044L144.04 126.486L143.956 126.44C140.049 124.24 134.696 124.559 128.764 127.99C123.216 131.187 118.15 136.52 114.335 142.7C109.926 149.81 107.172 158.048 107.172 165.425C107.172 172.308 109.581 177.146 113.475 179.406L121.452 183.964C125.391 186.477 130.946 186.249 137.119 182.694C149.041 175.883 158.724 159.089 158.724 145.278C158.724 138.116 156.093 133.173 151.893 131.044Z" fill="#0061F6"/>
<path opacity="0.1" d="M121.283 183.925L113.469 179.458C109.562 177.198 107.166 172.36 107.166 165.477C107.166 158.093 109.94 149.85 114.329 142.752L122.677 147.564C118.262 154.681 115.514 162.899 115.514 170.27C115.481 176.84 117.689 181.548 121.283 183.925Z" fill="black"/>
<path opacity="0.4" d="M151.758 130.953C147.903 129.084 142.765 129.559 137.126 132.809C131.487 136.058 126.487 141.371 122.664 147.551L114.316 142.739C118.132 136.559 123.198 131.226 128.746 128.029C134.672 124.604 140.031 124.279 143.938 126.48L144.022 126.525L151.758 130.953Z" fill="white"/>
<path d="M148.365 139.744L145.37 138.011L133.643 165.653L135.642 166.806L148.365 139.744Z" fill="white"/>
<path d="M131.343 159.48L128.348 157.755L125.131 164.559L128.126 166.285L131.343 159.48Z" fill="white"/>
<path d="M136.41 174.913L128.127 166.285L131.344 159.48L135.641 166.806L148.365 139.744L153.079 144.341L136.41 174.913Z" fill="#F5F5F5"/>
<path d="M125.131 164.559L128.126 166.285L136.409 174.913L133.42 173.2L125.131 164.559Z" fill="#E0E0E0"/>
<path d="M212.965 63.1805C216.357 63.1805 219.61 61.8331 222.008 59.4348C224.407 57.0364 225.754 53.7836 225.754 50.3918V49.6364C225.755 48.213 225.475 46.8033 224.931 45.488C224.387 44.1726 223.589 42.9774 222.583 41.9705C221.576 40.9637 220.382 40.165 219.067 39.6201C217.752 39.0752 216.342 38.7947 214.919 38.7947H211.012C208.136 38.7947 205.379 39.9369 203.345 41.9702C201.312 44.0034 200.17 46.761 200.17 49.6364V50.3918C200.17 52.0718 200.501 53.7353 201.144 55.2873C201.787 56.8394 202.73 58.2495 203.918 59.4371C205.106 60.6247 206.517 61.5666 208.069 62.2089C209.621 62.8512 211.285 63.1814 212.965 63.1805Z" fill="#263238"/>
<path d="M199.772 189.681C198.281 191.246 196.646 192.667 194.888 193.926C194.621 194.106 194.398 194.344 194.237 194.623C194.009 195.105 193.651 196.29 195.833 197.052C196.936 197.434 198.108 197.574 199.27 197.462C200.432 197.349 201.556 196.987 202.566 196.401C204.363 195.281 204.441 192.95 206.134 191.615C207.384 190.632 208.947 190.378 209.963 189.088C210.666 188.19 210.484 186.998 210.112 185.52C209.715 183.905 209.526 182.687 208.992 182.811L209.084 183.553C208.432 184.615 204.962 184.927 203.425 184.205C203.399 184.192 200.742 188.619 199.772 189.681Z" fill="#263238"/>
<path d="M198.255 191.185C198.776 190.71 199.284 190.215 199.772 189.681C200.794 188.354 201.736 186.967 202.591 185.527C203.181 184.654 203.459 183.608 203.379 182.557C203.256 181.437 202.95 178.579 202.95 178.579L208.419 178.188L209.07 183.554C209.201 184.771 208.198 185.852 206.414 187.389C204.63 188.926 202.377 192.5 200.762 193.399C199.147 194.298 198.001 194.265 197.311 193.803C196.62 193.34 196.523 192.963 198.255 191.185Z" fill="#FFAE9C"/>
<path d="M220.577 190.169V189.342C220.258 190.313 218.754 194.46 216.468 196.544C214.658 198.198 212.184 200.106 211.552 201.955C210.921 203.805 214.997 204.514 216.69 204.215C218.643 203.87 221.209 202.75 222.596 201.05C223.566 199.852 224.191 198.445 224.888 197.488C225.585 196.531 227.187 195.496 227.564 194.402C227.773 193.803 227.525 192.494 227.232 191.387C226.939 190.28 226.679 189.251 226.333 189.342V189.993C225.513 190.636 224.497 190.979 223.455 190.964C222.615 190.977 220.571 190.807 220.577 190.169Z" fill="#263238"/>
<path d="M214.828 198.022C215.388 197.521 215.954 197.032 216.468 196.564C218.064 195.111 219.281 192.657 219.978 190.964C220.377 190.004 220.582 188.975 220.584 187.936V184.68H226.333V190.019V190.163C226.06 191.361 223.416 194.538 221.919 196.609C220.916 197.996 219.008 199.767 216.709 200.073C214.528 200.321 213.421 199.637 214.828 198.022Z" fill="#FFAE9C"/>
<path d="M225.188 100.791C229.649 110.526 225.025 144.829 225.025 144.829C225.162 146.411 226.979 149.524 227.63 156.478C228.424 164.696 226.38 185.324 226.38 185.324C225.503 185.835 224.515 186.123 223.501 186.164C222.488 186.205 221.48 185.997 220.565 185.559C220.565 185.559 215.089 154.479 214.053 146.314C213.155 139.183 211.449 122.423 211.449 122.423L206.969 146.463C207.798 148.713 208.385 151.044 208.72 153.418C209.183 158.23 208.838 180.454 208.838 180.454C208.838 180.454 206.884 181.951 203.101 181.398C203.101 181.398 196.589 150.963 196.075 145.181C195.775 141.73 199.708 99.3652 199.708 99.3652L225.188 100.791Z" fill="#FFC018"/>
<path opacity="0.6" d="M225.188 100.791C229.649 110.526 225.025 144.829 225.025 144.829C225.162 146.411 226.979 149.524 227.63 156.478C228.424 164.696 226.38 185.324 226.38 185.324C225.503 185.835 224.515 186.123 223.501 186.164C222.488 186.205 221.48 185.997 220.565 185.559C220.565 185.559 215.089 154.479 214.053 146.314C213.155 139.183 211.449 122.423 211.449 122.423L206.969 146.463C207.798 148.713 208.385 151.044 208.72 153.418C209.183 158.23 208.838 180.454 208.838 180.454C208.838 180.454 206.884 181.951 203.101 181.398C203.101 181.398 196.589 150.963 196.075 145.181C195.775 141.73 199.708 99.3652 199.708 99.3652L225.188 100.791Z" fill="black"/>
<path opacity="0.3" d="M211.441 122.423L209.995 114.459C209.995 114.459 203.868 113.189 201.094 110.552C201.094 110.552 204.004 114.179 208.335 115.364L209.963 122.325L207.403 144.074L211.441 122.423Z" fill="black"/>
<path d="M232.455 96.5589C232.409 95.9077 231.211 89.1031 230.391 85.2874L222.375 87.7422L223.801 94.7617L230.547 100.179C232.67 99.7626 232.5 97.197 232.455 96.5589Z" fill="#FFAE9C"/>
<path d="M193.684 82.1814L189.895 89.1292L195.794 94.1822L201.192 85.6195L193.684 82.1814Z" fill="#FFAE9C"/>
<path d="M207.905 66.7034C204.148 66.7424 200.006 68.1034 198.58 71.0531C197.154 74.0028 193.215 82.1228 193.215 82.1228C193.215 82.1228 196.725 86.8892 201.992 86.5441L207.905 66.7034Z" fill="#FFC018"/>
<path opacity="0.6" d="M207.905 66.7034C204.148 66.7424 200.006 68.1034 198.58 71.0531C197.154 74.0028 193.215 82.1228 193.215 82.1228C193.215 82.1228 196.725 86.8892 201.992 86.5441L207.905 66.7034Z" fill="black"/>
<path d="M215.68 66.8336L218.812 66.9638C222.211 67.7778 223.442 70.1154 224.868 73.1303C225.913 75.4584 226.011 78.1022 225.141 80.5014L221.156 92.0269C221.156 92.0269 223.018 96.5329 225.187 100.791C215.192 106.372 202.709 103.435 199.7 99.3654C199.577 98.4994 199.746 94.612 199.505 90.1841C199.251 85.4567 198.6 80.1237 199.342 77.2065C200.723 71.7889 203.301 66.7034 208.459 66.7034L215.68 66.8336Z" fill="#F5F5F5"/>
<path d="M218.826 66.9636C222.232 67.4455 227.246 68.1292 228.971 76.2361C230.723 84.4537 231.055 86.4137 231.055 86.4137C231.055 86.4137 228.073 89.3895 222.414 89.3634C222.401 89.3634 217.413 73.2278 218.826 66.9636Z" fill="#FFC018"/>
<path opacity="0.6" d="M218.826 66.9636C222.232 67.4455 227.246 68.1292 228.971 76.2361C230.723 84.4537 231.055 86.4137 231.055 86.4137C231.055 86.4137 228.073 89.3895 222.414 89.3634C222.401 89.3634 217.413 73.2278 218.826 66.9636Z" fill="black"/>
<path d="M222.251 88.8622C221.6 86.7069 220.949 84.2455 220.33 81.6018C220.357 84.9253 220.695 88.2389 221.339 91.4994L222.251 88.8622Z" fill="#EBEBEB"/>
<path d="M204.344 43.9648C202.996 44.7658 201.329 48.1648 201.492 55.2885C201.628 61.3247 203.588 62.8158 204.571 63.2456C205.555 63.6754 207.45 63.4149 209.292 63.1089V66.7358C209.292 66.7358 206.746 69.6921 206.903 71.3525C207.059 73.013 210.582 73.4102 212.965 71.7823C214.508 70.6713 215.832 69.285 216.872 67.693V58.9284C216.872 58.9284 218.116 60.5889 220.128 59.241C222.14 57.8931 222.237 54.5461 221.059 53.3415C219.88 52.1369 217.321 52.5211 216.852 54.1815C216.852 54.1815 213.909 54.2922 209.996 52.1434C208.478 51.3189 207.176 50.149 206.194 48.7283C205.212 47.3076 204.578 45.6758 204.344 43.9648Z" fill="#FFAE9C"/>
<path d="M208.231 53.7713C208.228 53.9208 208.27 54.0676 208.35 54.1936C208.431 54.3196 208.547 54.4191 208.683 54.4797C208.82 54.5403 208.972 54.5594 209.119 54.5345C209.267 54.5096 209.403 54.4419 209.513 54.3398C209.622 54.2377 209.699 54.1057 209.733 53.9602C209.768 53.8148 209.759 53.6624 209.708 53.5219C209.657 53.3815 209.565 53.2592 209.445 53.1704C209.325 53.0816 209.181 53.0301 209.031 53.0224C208.93 53.0189 208.828 53.0356 208.733 53.0713C208.638 53.1071 208.55 53.1613 208.476 53.2308C208.401 53.3004 208.341 53.3839 208.299 53.4766C208.257 53.5694 208.234 53.6695 208.231 53.7713Z" fill="#263238"/>
<path d="M208.03 58.8894L206.266 59.4559C206.296 59.5754 206.35 59.6876 206.424 59.7856C206.499 59.8837 206.592 59.9656 206.699 60.0265C206.807 60.0873 206.925 60.1259 207.047 60.1397C207.17 60.1536 207.294 60.1425 207.412 60.1071C207.653 60.0252 207.854 59.8519 207.969 59.6243C208.085 59.3967 208.107 59.133 208.03 58.8894Z" fill="#9A4A4D"/>
<path d="M202.007 51.4401L203.544 50.3787C203.48 50.2711 203.394 50.178 203.292 50.1054C203.19 50.0329 203.074 49.9824 202.952 49.9573C202.829 49.9321 202.703 49.9329 202.58 49.9595C202.458 49.9861 202.343 50.0379 202.242 50.1117C202.04 50.2615 201.904 50.4824 201.861 50.7293C201.817 50.9763 201.869 51.2305 202.007 51.4401Z" fill="#263238"/>
<path d="M202.357 53.2242C202.356 53.3735 202.399 53.5197 202.48 53.6449C202.562 53.77 202.678 53.8685 202.815 53.9281C202.952 53.9878 203.103 54.0059 203.25 53.9803C203.397 53.9546 203.533 53.8864 203.642 53.784C203.751 53.6816 203.827 53.5495 203.861 53.4043C203.895 53.259 203.886 53.1068 203.834 52.9668C203.783 52.8267 203.691 52.7048 203.571 52.6163C203.451 52.5278 203.307 52.4765 203.158 52.4689C202.953 52.4653 202.754 52.5423 202.604 52.6834C202.454 52.8246 202.366 53.0187 202.357 53.2242Z" fill="#263238"/>
<path d="M205.94 52.7881L205.823 57.3592L203.42 56.6169L205.94 52.7881Z" fill="#9A4A4D"/>
<path d="M209.293 63.1088C211.246 62.8548 215.225 61.7088 215.85 60.1265C215.601 60.9267 215.112 61.6313 214.45 62.1451C213.259 63.1674 209.293 64.3199 209.293 64.3199V63.1088Z" fill="#9A4A4D"/>
<path d="M177.51 81.7581L199.551 87.5599L206.063 114.921L185.102 108.833L177.51 81.7581Z" fill="#FFC018"/>
<path opacity="0.15" d="M187.121 99.8601C186.919 100.42 185.708 101.97 183.143 101.846L182.83 100.713L187.121 99.8601Z" fill="black"/>
<path opacity="0.15" d="M192.051 100.713C192.148 101.442 193.646 102.797 196.179 103.637C199.064 104.601 203.485 104.093 203.485 104.093L203.088 102.732L192.051 100.713Z" fill="black"/>
<path opacity="0.15" d="M183.964 85.7171C183.964 85.7171 183.885 85.3395 183.781 84.8771C183.677 84.4148 184.979 84.3888 186.672 84.8316L189.928 85.6716C191.621 86.1143 193.08 86.8501 193.184 87.3125L193.366 88.1525L183.964 85.7171Z" fill="black"/>
<path d="M182.439 82.546C182.374 82.2529 182.895 82.1813 183.605 82.3767L184.907 82.7283C184.907 82.7283 184.523 80.9116 187.375 81.5497C190.227 82.1878 190.852 84.2455 190.852 84.2455L192.226 84.6362C192.988 84.8511 193.672 85.2873 193.763 85.5543L193.926 86.0752L182.569 83.0864C182.569 83.0864 182.498 82.8325 182.439 82.546Z" fill="#37474F"/>
<path d="M184.003 83.4511C185.045 83.705 185.474 83.8418 185.631 84.558C185.806 85.3785 185.878 85.9776 185.878 85.9776L190.905 87.2799C190.905 87.2799 190.664 86.2445 190.586 85.8408C190.508 85.4371 190.677 85.1897 191.478 85.4045L191.543 85.0855L183.664 83.106L184.003 83.4511Z" fill="#37474F"/>
<path d="M183.827 85.7952C183.827 85.7952 183.749 85.4175 183.645 84.9552C183.54 84.4929 184.843 84.4733 186.536 84.9096L189.791 85.7561C191.484 86.1924 192.943 86.9282 193.047 87.3905L193.23 88.2305L183.827 85.7952Z" fill="#37474F"/>
<path d="M230.546 100.179L223.793 94.7616C223.793 94.7616 208.869 97.4183 207.111 97.5551C206.183 97.5802 205.269 97.3244 204.49 96.8213C203.71 96.3181 203.101 95.5911 202.741 94.7355C202.09 93.01 200.899 93.2249 200.899 93.2249C200.899 93.2249 201.413 95.4062 201.55 96.103C201.686 96.7997 197.513 97.4053 195.181 96.5848C192.85 95.7644 189.471 96.943 191.561 100.114C193.651 103.285 197.721 103.656 200.54 103.656C201.723 103.648 202.903 103.569 204.076 103.422C204.988 103.305 205.899 103.214 206.818 103.148C212.632 102.732 227.941 101 230.546 100.179Z" fill="#FFAE9C"/>
<path d="M179.755 89.7542L180.732 93.2444C180.921 93.8956 183.48 95.1328 185.101 95.5821C186.723 96.0314 188.494 96.5523 187.706 98.8379C187.003 100.928 184.333 101.403 182.979 101.345C181.624 101.286 179.762 99.9904 179.033 97.9002C178.095 95.2305 178.596 92.3784 178.225 90.8221C177.854 89.2659 178.942 88.8231 179.755 89.7542Z" fill="#FFAE9C"/>
<path d="M224.127 77.2065C223.175 77.2073 222.232 77.0205 221.351 76.6567C220.471 76.2928 219.672 75.7591 218.998 75.0861C218.324 74.413 217.79 73.6138 217.425 72.734C217.061 71.8543 216.873 70.9114 216.873 69.9591V59.7815C218.795 59.7832 220.637 60.5473 221.996 61.9061C223.355 63.2649 224.119 65.1073 224.12 67.0289L224.127 77.2065Z" fill="#263238"/>
</svg>
