<svg width="32" height="32" viewBox="0 0 32 32" fill="none" xmlns="http://www.w3.org/2000/svg">
<path d="M5.33268 5.3335C4.62544 5.3335 3.94716 5.61445 3.44706 6.11454C2.94697 6.61464 2.66602 7.29292 2.66602 8.00016V13.3335C3.37326 13.3335 4.05154 13.6144 4.55163 14.1145C5.05173 14.6146 5.33268 15.2929 5.33268 16.0002C5.33268 16.7074 5.05173 17.3857 4.55163 17.8858C4.05154 18.3859 3.37326 18.6668 2.66602 18.6668V24.0002C2.66602 24.7074 2.94697 25.3857 3.44706 25.8858C3.94716 26.3859 4.62544 26.6668 5.33268 26.6668H26.666C27.3733 26.6668 28.0515 26.3859 28.5516 25.8858C29.0517 25.3857 29.3327 24.7074 29.3327 24.0002V18.6668C28.6254 18.6668 27.9472 18.3859 27.4471 17.8858C26.947 17.3857 26.666 16.7074 26.666 16.0002C26.666 15.2929 26.947 14.6146 27.4471 14.1145C27.9472 13.6144 28.6254 13.3335 29.3327 13.3335V8.00016C29.3327 7.29292 29.0517 6.61464 28.5516 6.11454C28.0515 5.61445 27.3733 5.3335 26.666 5.3335H5.33268ZM20.666 9.3335L22.666 11.3335L11.3327 22.6668L9.33268 20.6668L20.666 9.3335ZM11.746 9.38683C13.0527 9.38683 14.106 10.4402 14.106 11.7468C14.106 12.3727 13.8574 12.973 13.4148 13.4156C12.9722 13.8582 12.3719 14.1068 11.746 14.1068C10.4393 14.1068 9.38601 13.0535 9.38601 11.7468C9.38601 11.1209 9.63466 10.5206 10.0772 10.0781C10.5198 9.63547 11.1201 9.38683 11.746 9.38683ZM20.2527 17.8935C21.5593 17.8935 22.6127 18.9468 22.6127 20.2535C22.6127 20.8794 22.364 21.4797 21.9215 21.9223C21.4789 22.3649 20.8786 22.6135 20.2527 22.6135C18.946 22.6135 17.8927 21.5602 17.8927 20.2535C17.8927 19.6276 18.1413 19.0273 18.5839 18.5847C19.0265 18.1421 19.6268 17.8935 20.2527 17.8935Z" fill="#FFFAFA"/>
</svg>
