<svg width="29" height="27" viewBox="0 0 29 27" fill="none" xmlns="http://www.w3.org/2000/svg">
<path d="M17.0958 4.37158C17.0958 4.37158 10.4004 12.0238 10.4004 17.4378C10.4004 21.7092 12.9874 24.3988 17.0958 24.3988C21.2042 24.3988 23.7913 21.7092 23.7913 17.4378C23.7913 12.0238 17.0958 4.37158 17.0958 4.37158ZM17.8398 21.8851V20.725C18.5794 20.7241 19.2885 20.4182 19.8115 19.8745C20.3345 19.3307 20.6287 18.5935 20.6295 17.8246H21.7454C21.7443 18.9011 21.3325 19.9333 20.6003 20.6945C19.8681 21.4558 18.8753 21.884 17.8398 21.8851Z" fill="#D3E4FF"/>
<path d="M6.70934 1.19629C6.70934 1.19629 2.93555 5.50935 2.93555 8.56091C2.93555 10.9684 4.3937 12.4844 6.70934 12.4844C9.02498 12.4844 10.4831 10.9684 10.4831 8.56091C10.4831 5.50935 6.70934 1.19629 6.70934 1.19629ZM7.12865 11.0676V10.4136C7.54553 10.4131 7.9452 10.2407 8.23998 9.93428C8.53476 9.62781 8.70058 9.21229 8.70106 8.77888H9.33003C9.3294 9.38567 9.09727 9.96743 8.68457 10.3965C8.27187 10.8256 7.7123 11.0669 7.12865 11.0676Z" fill="#D3E4FF"/>
</svg>
